<?xml version="1.0" encoding="UTF-8"?>
<!--Generator: Apple Native CoreSVG 175.5-->
<!DOCTYPE svg
PUBLIC "-//W3C//DTD SVG 1.1//EN"
       "http://www.w3.org/Graphics/SVG/1.1/DTD/svg11.dtd">
<svg version="1.1" xmlns="http://www.w3.org/2000/svg" xmlns:xlink="http://www.w3.org/1999/xlink" width="24.9023" height="24.9146">
 <g>
  <rect height="24.9146" opacity="0" width="24.9023" x="0" y="0"/>
  <path d="M12.4512 24.9023C19.2627 24.9023 24.9023 19.2505 24.9023 12.4512C24.9023 5.63965 19.2505 0 12.439 0C5.63965 0 0 5.63965 0 12.4512C0 19.2505 5.65186 24.9023 12.4512 24.9023ZM12.4512 22.8271C6.68945 22.8271 2.0874 18.2129 2.0874 12.4512C2.0874 6.68945 6.67725 2.0752 12.439 2.0752C18.2007 2.0752 22.8271 6.68945 22.8271 12.4512C22.8271 18.2129 18.2129 22.8271 12.4512 22.8271ZM12.4512 18.5547C12.9883 18.5547 13.3667 18.1763 13.3667 17.6392L13.3667 11.5356L13.269 8.94775L14.5142 10.4248L15.9546 11.8896C16.1133 12.0605 16.333 12.1582 16.6016 12.1582C17.1021 12.1582 17.4927 11.7676 17.4927 11.2793C17.4927 11.0229 17.395 10.8032 17.2363 10.6445L13.1714 6.57959C12.9395 6.34766 12.7197 6.23779 12.4512 6.23779C12.1948 6.23779 11.9873 6.33545 11.7432 6.57959L7.66602 10.6445C7.50732 10.8032 7.43408 11.0229 7.43408 11.2793C7.43408 11.7676 7.8125 12.1582 8.31299 12.1582C8.56934 12.1582 8.78906 12.0483 8.95996 11.8896L10.4126 10.4248L11.6333 8.95996L11.5356 11.5356L11.5356 17.6392C11.5356 18.1763 11.9263 18.5547 12.4512 18.5547Z" fill="#000000"/>
 </g>
</svg>
