<?xml version="1.0" encoding="UTF-8"?>
<!--Generator: Apple Native CoreSVG 175.5-->
<!DOCTYPE svg
PUBLIC "-//W3C//DTD SVG 1.1//EN"
       "http://www.w3.org/Graphics/SVG/1.1/DTD/svg11.dtd">
<svg version="1.1" xmlns="http://www.w3.org/2000/svg" xmlns:xlink="http://www.w3.org/1999/xlink" width="21.5698" height="29.2114">
 <g>
  <rect height="29.2114" opacity="0" width="21.5698" x="0" y="0"/>
  <path d="M0 15.4785C0 21.4722 4.80957 26.2817 10.791 26.2817C16.7725 26.2817 21.5698 21.4722 21.5698 15.4785C21.5698 9.49707 16.7725 4.69971 10.791 4.69971C10.0342 4.69971 9.31396 4.78516 8.6792 4.90723L11.9263 1.69678C12.1094 1.50146 12.1948 1.25732 12.1948 1.00098C12.1948 0.439453 11.7798 0 11.2427 0C10.9375 0 10.6934 0.0976562 10.5225 0.292969L5.49316 5.39551C5.29785 5.59082 5.18799 5.85938 5.18799 6.12793C5.18799 6.40869 5.28564 6.65283 5.49316 6.86035L10.5225 11.9141C10.7056 12.0972 10.9375 12.1948 11.2305 12.1948C11.7798 12.1948 12.1948 11.7798 12.1948 11.2183C12.1948 10.9619 12.1094 10.7178 11.9141 10.5225L8.27637 6.90918C8.98438 6.73828 9.85107 6.66504 10.791 6.66504C15.686 6.66504 19.6045 10.5835 19.6045 15.4785C19.6045 20.3857 15.686 24.3164 10.791 24.3164C5.896 24.3164 1.96533 20.3857 1.96533 15.4785C1.96533 14.8926 1.59912 14.4653 1.01318 14.4653C0.415039 14.4653 0 14.8926 0 15.4785Z" fill="#000000"/>
 </g>
</svg>
