<?xml version="1.0" encoding="UTF-8"?>
<!--Generator: Apple Native CoreSVG 175.5-->
<!DOCTYPE svg
PUBLIC "-//W3C//DTD SVG 1.1//EN"
       "http://www.w3.org/Graphics/SVG/1.1/DTD/svg11.dtd">
<svg version="1.1" xmlns="http://www.w3.org/2000/svg" xmlns:xlink="http://www.w3.org/1999/xlink" width="24.9023" height="24.9146">
 <g>
  <rect height="24.9146" opacity="0" width="24.9023" x="0" y="0"/>
  <path d="M12.4512 24.2188C15.8447 24.2188 18.6157 19.2017 18.6157 12.4756C18.6157 5.71289 15.8569 0.695801 12.4512 0.695801C9.04541 0.695801 6.28662 5.71289 6.28662 12.4756C6.28662 19.2017 9.05762 24.2188 12.4512 24.2188ZM12.4512 2.17285C14.8438 2.17285 16.98 6.93359 16.98 12.4756C16.98 17.9199 14.8438 22.7295 12.4512 22.7295C10.0586 22.7295 7.92236 17.9199 7.92236 12.4756C7.92236 6.93359 10.0586 2.17285 12.4512 2.17285ZM11.6577 0.866699L11.6577 23.9868L13.2568 23.9868L13.2568 0.866699ZM12.4512 17.041C8.69141 17.041 5.35889 18.0298 3.6499 19.6045L4.88281 20.6177C6.49414 19.3359 9.11865 18.6401 12.4512 18.6401C15.7837 18.6401 18.4082 19.3359 20.0195 20.6177L21.2524 19.6045C19.5435 18.0298 16.2109 17.041 12.4512 17.041ZM23.7183 11.6455L1.18408 11.6455L1.18408 13.2446L23.7183 13.2446ZM12.4512 7.92236C16.2109 7.92236 19.5435 6.93359 21.2524 5.35889L20.0195 4.3457C18.4082 5.61523 15.7837 6.32324 12.4512 6.32324C9.11865 6.32324 6.49414 5.61523 4.88281 4.3457L3.6499 5.35889C5.35889 6.93359 8.69141 7.92236 12.4512 7.92236ZM12.4512 24.9023C19.2627 24.9023 24.9023 19.2505 24.9023 12.4512C24.9023 5.63965 19.2505 0 12.439 0C5.63965 0 0 5.63965 0 12.4512C0 19.2505 5.65186 24.9023 12.4512 24.9023ZM12.4512 23.2422C6.55518 23.2422 1.66016 18.3472 1.66016 12.4512C1.66016 6.55518 6.54297 1.66016 12.439 1.66016C18.335 1.66016 23.2422 6.55518 23.2422 12.4512C23.2422 18.3472 18.3472 23.2422 12.4512 23.2422Z" fill="#000000"/>
 </g>
</svg>
