<?xml version="1.0" encoding="UTF-8"?>
<!--Generator: Apple Native CoreSVG 175.5-->
<!DOCTYPE svg
PUBLIC "-//W3C//DTD SVG 1.1//EN"
       "http://www.w3.org/Graphics/SVG/1.1/DTD/svg11.dtd">
<svg version="1.1" xmlns="http://www.w3.org/2000/svg" xmlns:xlink="http://www.w3.org/1999/xlink" width="27.2461" height="21.5454">
 <g>
  <rect height="21.5454" opacity="0" width="27.2461" x="0" y="0"/>
  <path d="M13.1592 21.5454C13.9648 21.5454 14.5386 20.9717 14.5386 20.1782L14.5386 1.45264C14.5386 0.65918 13.9648 0.012207 13.1348 0.012207C12.561 0.012207 12.1826 0.268555 11.5601 0.854492L6.34766 5.7373C6.27441 5.81055 6.16455 5.84717 6.04248 5.84717L2.55127 5.84717C0.891113 5.84717 0 6.7627 0 8.52051L0 13.0615C0 14.8315 0.891113 15.7349 2.55127 15.7349L6.04248 15.7349C6.16455 15.7349 6.27441 15.7715 6.34766 15.8447L11.5601 20.7764C12.1094 21.3135 12.5854 21.5454 13.1592 21.5454ZM18.9087 15.9668C19.3115 16.2476 19.8853 16.1621 20.2148 15.686C21.1548 14.4531 21.7163 12.6343 21.7163 10.7666C21.7163 8.89893 21.1548 7.09229 20.2148 5.84717C19.8853 5.37109 19.3115 5.27344 18.9087 5.56641C18.4082 5.9082 18.335 6.51855 18.7134 7.01904C19.4214 7.99561 19.8242 9.35059 19.8242 10.7666C19.8242 12.1826 19.4092 13.5254 18.7134 14.5142C18.3472 15.0269 18.4082 15.6128 18.9087 15.9668ZM23.4253 19.1528C23.877 19.458 24.4385 19.3481 24.7681 18.8843C26.3306 16.7358 27.2461 13.7817 27.2461 10.7666C27.2461 7.75146 26.3428 4.77295 24.7681 2.64893C24.4385 2.18506 23.877 2.0752 23.4253 2.38037C22.9736 2.68555 22.9004 3.25928 23.2544 3.75977C24.585 5.63965 25.354 8.1665 25.354 10.7666C25.354 13.3667 24.5605 15.8691 23.2544 17.7734C22.9126 18.2739 22.9736 18.8477 23.4253 19.1528Z" fill="#000000"/>
 </g>
</svg>
