<?xml version="1.0" encoding="UTF-8"?>
<!--Generator: Apple Native CoreSVG 175.5-->
<!DOCTYPE svg
PUBLIC "-//W3C//DTD SVG 1.1//EN"
       "http://www.w3.org/Graphics/SVG/1.1/DTD/svg11.dtd">
<svg version="1.1" xmlns="http://www.w3.org/2000/svg" xmlns:xlink="http://www.w3.org/1999/xlink" width="24.5996" height="20.1721">
 <g>
  <rect height="20.1721" opacity="0" width="24.5996" x="0" y="0"/>
  <path d="M8.2544 3.69568L23.6231 3.69568C24.1724 3.69568 24.5996 3.26843 24.5996 2.71912C24.5996 2.15759 24.1724 1.73035 23.6231 1.73035L8.2544 1.73035C7.70509 1.73035 7.26563 2.15759 7.26563 2.71912C7.26563 3.26843 7.70509 3.69568 8.2544 3.69568ZM8.2544 11.0809L23.6231 11.0809C24.1724 11.0809 24.5996 10.6415 24.5996 10.0922C24.5996 9.54285 24.1724 9.1156 23.6231 9.1156L8.2544 9.1156C7.70509 9.1156 7.26563 9.54285 7.26563 10.0922C7.26563 10.6415 7.70509 11.0809 8.2544 11.0809ZM8.2544 18.454L23.6231 18.454C24.1724 18.454 24.5996 18.0267 24.5996 17.4774C24.5996 16.9159 24.1724 16.4886 23.6231 16.4886L8.2544 16.4886C7.70509 16.4886 7.26563 16.9159 7.26563 17.4774C7.26563 18.0267 7.70509 18.454 8.2544 18.454ZM1.41847 4.72107L2.46827 3.95203L3.48145 4.72107C3.84766 4.98962 4.23829 4.70886 4.10401 4.30603L3.70118 3.06091L4.72657 2.29187C5.04395 2.04773 4.92188 1.59607 4.51905 1.59607L3.23731 1.59607L2.81007 0.265503C2.7002-0.088501 2.22413-0.088501 2.11427 0.265503L1.68702 1.59607L0.393075 1.59607C-0.00975696 1.59607-0.144034 2.04773 0.185556 2.29187L1.22315 3.06091L0.820321 4.30603C0.673837 4.70886 1.06446 4.97742 1.41847 4.72107ZM1.41847 12.0819L2.46827 11.3129L3.48145 12.0819C3.84766 12.3627 4.23829 12.0697 4.10401 11.6669L3.70118 10.4218L4.72657 9.65271C5.04395 9.40857 4.92188 8.96912 4.51905 8.96912L3.23731 8.96912L2.81007 7.62634C2.7002 7.28455 2.22413 7.28455 2.11427 7.62634L1.68702 8.96912L0.393075 8.96912C-0.00975696 8.96912-0.144034 9.40857 0.185556 9.65271L1.22315 10.4218L0.820321 11.6669C0.686044 12.0697 1.06446 12.3383 1.41847 12.0819ZM1.41847 19.4794L2.46827 18.7103L3.48145 19.4794C3.84766 19.7601 4.23829 19.4672 4.10401 19.0643L3.70118 17.8192L4.72657 17.0502C5.04395 16.806 4.92188 16.3666 4.51905 16.3666L3.23731 16.3666L2.81007 15.0238C2.7002 14.682 2.22413 14.6698 2.11427 15.0238L1.68702 16.3666L0.393075 16.3666C-0.00975696 16.3666-0.144034 16.806 0.185556 17.0502L1.22315 17.8192L0.820321 19.0643C0.686044 19.4672 1.06446 19.7357 1.41847 19.4794Z" fill="#000000"/>
 </g>
</svg>
