<?xml version="1.0" encoding="UTF-8"?>
<!--Generator: Apple Native CoreSVG 175.5-->
<!DOCTYPE svg
PUBLIC "-//W3C//DTD SVG 1.1//EN"
       "http://www.w3.org/Graphics/SVG/1.1/DTD/svg11.dtd">
<svg version="1.1" xmlns="http://www.w3.org/2000/svg" xmlns:xlink="http://www.w3.org/1999/xlink" width="25.4789" height="25.8911">
 <g>
  <rect height="25.8911" opacity="0" width="25.4789" x="0" y="0"/>
  <path d="M16.2354 11.1694L5.16357 22.229C4.73633 22.6685 4.1748 22.8027 3.75977 22.3511C3.30811 21.8628 3.40576 21.3989 3.88184 20.9106L14.917 9.82666L13.8672 8.78906L4.00391 18.6523C0.231934 22.4243 2.05078 21.8384 0 24.7314L1.09863 25.8911C3.89404 23.8525 3.51562 25.8545 7.34863 22.0337L17.2485 12.1948ZM19.1406 13.3789L19.4824 13.0005C20.0806 12.3779 20.1172 11.6455 19.4702 11.0107L19.104 10.6567C20.9717 8.98438 23.0469 8.75244 24.3286 7.44629C26.1475 5.61523 25.5615 3.05176 24.2798 1.77002C23.0103 0.476074 20.4712-0.0732422 18.6035 1.72119C17.2852 2.99072 17.0654 5.07812 15.3931 6.9458L15.0391 6.57959C14.4165 5.94482 13.6719 5.96924 13.0493 6.56738L12.6831 6.90918C11.9263 7.62939 12.0728 8.26416 12.7075 8.91113L17.1387 13.3423C17.7856 13.9893 18.4326 14.1235 19.1406 13.3789Z" fill="#000000"/>
 </g>
</svg>
