<?xml version="1.0" encoding="UTF-8"?>
<!--Generator: Apple Native CoreSVG 175.5-->
<!DOCTYPE svg
PUBLIC "-//W3C//DTD SVG 1.1//EN"
       "http://www.w3.org/Graphics/SVG/1.1/DTD/svg11.dtd">
<svg version="1.1" xmlns="http://www.w3.org/2000/svg" xmlns:xlink="http://www.w3.org/1999/xlink" width="23.9014" height="23.9136">
 <g>
  <rect height="23.9136" opacity="0" width="23.9014" x="0" y="0"/>
  <path d="M0.976562 7.78809C1.62354 7.78809 1.96533 7.42188 1.96533 6.78711L1.96533 3.90625C1.96533 2.63672 2.63672 1.98975 3.85742 1.98975L6.81152 1.98975C7.4585 1.98975 7.8125 1.63574 7.8125 1.00098C7.8125 0.366211 7.4585 0.0244141 6.81152 0.0244141L3.83301 0.0244141C1.28174 0.0244141 0 1.28174 0 3.79639L0 6.78711C0 7.42188 0.354004 7.78809 0.976562 7.78809ZM22.9126 7.78809C23.5596 7.78809 23.9014 7.42188 23.9014 6.78711L23.9014 3.79639C23.9014 1.28174 22.6196 0.0244141 20.0684 0.0244141L17.0776 0.0244141C16.4429 0.0244141 16.0889 0.366211 16.0889 1.00098C16.0889 1.63574 16.4429 1.98975 17.0776 1.98975L20.0317 1.98975C21.2402 1.98975 21.936 2.63672 21.936 3.90625L21.936 6.78711C21.936 7.42188 22.29 7.78809 22.9126 7.78809ZM3.83301 23.9136L6.81152 23.9136C7.4585 23.9136 7.8125 23.5596 7.8125 22.937C7.8125 22.3022 7.4585 21.9482 6.81152 21.9482L3.85742 21.9482C2.63672 21.9482 1.96533 21.3013 1.96533 20.0317L1.96533 17.1509C1.96533 16.5039 1.61133 16.1499 0.976562 16.1499C0.341797 16.1499 0 16.5039 0 17.1509L0 20.1294C0 22.6562 1.28174 23.9136 3.83301 23.9136ZM17.0776 23.9136L20.0684 23.9136C22.6196 23.9136 23.9014 22.644 23.9014 20.1294L23.9014 17.1509C23.9014 16.5039 23.5474 16.1499 22.9126 16.1499C22.2778 16.1499 21.936 16.5039 21.936 17.1509L21.936 20.0317C21.936 21.3013 21.2402 21.9482 20.0317 21.9482L17.0776 21.9482C16.4429 21.9482 16.0889 22.3022 16.0889 22.937C16.0889 23.5596 16.4429 23.9136 17.0776 23.9136ZM6.50635 17.4805L17.4072 17.4805C18.689 17.4805 19.3481 16.8457 19.3481 15.5762L19.3481 9.13086C19.3481 7.83691 18.689 7.20215 17.4072 7.20215L15.8203 7.20215C15.3442 7.20215 15.1978 7.1167 14.917 6.79932L14.4165 6.25C14.1113 5.9082 13.7939 5.7373 13.1714 5.7373L10.7056 5.7373C10.0708 5.7373 9.75342 5.9082 9.44824 6.25L8.94775 6.79932C8.66699 7.10449 8.52051 7.20215 8.04443 7.20215L6.50635 7.20215C5.2124 7.20215 4.56543 7.83691 4.56543 9.13086L4.56543 15.5762C4.56543 16.8457 5.2124 17.4805 6.50635 17.4805ZM11.9751 15.9546C9.93652 15.9546 8.30078 14.3311 8.30078 12.2803C8.30078 10.2539 9.93652 8.63037 11.9751 8.63037C13.9893 8.63037 15.6128 10.2539 15.6128 12.2803C15.6128 14.3677 13.9893 15.9546 11.9751 15.9546ZM11.9629 14.8926C13.3911 14.8926 14.563 13.7451 14.563 12.2803C14.563 10.8398 13.3911 9.68018 11.9629 9.68018C10.5225 9.68018 9.35059 10.8398 9.35059 12.2803C9.35059 13.7451 10.5225 14.8926 11.9629 14.8926ZM16.8335 10.5347C16.3818 10.5347 16.0156 10.1685 16.0156 9.70459C16.0156 9.24072 16.3818 8.87451 16.8335 8.87451C17.2852 8.87451 17.6636 9.24072 17.6636 9.70459C17.6636 10.1685 17.2852 10.5347 16.8335 10.5347Z" fill="#000000"/>
 </g>
</svg>
