<?xml version="1.0" encoding="UTF-8"?>
<!--Generator: Apple Native CoreSVG 175.5-->
<!DOCTYPE svg
PUBLIC "-//W3C//DTD SVG 1.1//EN"
       "http://www.w3.org/Graphics/SVG/1.1/DTD/svg11.dtd">
<svg version="1.1" xmlns="http://www.w3.org/2000/svg" xmlns:xlink="http://www.w3.org/1999/xlink" width="24.9023" height="24.9146">
 <g>
  <rect height="24.9146" opacity="0" width="24.9023" x="0" y="0"/>
  <path d="M12.4512 24.9023C19.2627 24.9023 24.9023 19.2505 24.9023 12.4512C24.9023 5.63965 19.2505 0 12.439 0C5.63965 0 0 5.63965 0 12.4512C0 19.2505 5.65186 24.9023 12.4512 24.9023ZM12.4512 22.8271C6.68945 22.8271 2.0874 18.2129 2.0874 12.4512C2.0874 6.68945 6.67725 2.0752 12.439 2.0752C18.2007 2.0752 22.8271 6.68945 22.8271 12.4512C22.8271 18.2129 18.2129 22.8271 12.4512 22.8271ZM12.1948 14.978C12.8052 14.978 13.1836 14.5874 13.1836 14.1113C13.1836 14.0625 13.1836 14.0015 13.1836 13.9648C13.1836 13.2812 13.5742 12.8418 14.4287 12.2803C15.6128 11.499 16.4551 10.791 16.4551 9.32617C16.4551 7.2998 14.6484 6.20117 12.5732 6.20117C10.4736 6.20117 9.09424 7.20215 8.76465 8.3252C8.70361 8.52051 8.66699 8.71582 8.66699 8.92334C8.66699 9.47266 9.09424 9.76562 9.49707 9.76562C9.91211 9.76562 10.1807 9.57031 10.4004 9.27734L10.6201 8.98438C11.0474 8.27637 11.6821 7.86133 12.5 7.86133C13.6108 7.86133 14.3311 8.49609 14.3311 9.42383C14.3311 10.2539 13.8184 10.6567 12.7563 11.4014C11.8774 12.0117 11.2183 12.6587 11.2183 13.855C11.2183 13.9038 11.2183 13.9648 11.2183 14.0137C11.2183 14.6484 11.5723 14.978 12.1948 14.978ZM12.1704 18.6157C12.8784 18.6157 13.4888 18.0542 13.4888 17.3462C13.4888 16.6382 12.8906 16.0767 12.1704 16.0767C11.4502 16.0767 10.8521 16.6504 10.8521 17.3462C10.8521 18.042 11.4624 18.6157 12.1704 18.6157Z" fill="#000000"/>
 </g>
</svg>
