<?xml version="1.0" encoding="UTF-8"?>
<!--Generator: Apple Native CoreSVG 175.5-->
<!DOCTYPE svg
PUBLIC "-//W3C//DTD SVG 1.1//EN"
       "http://www.w3.org/Graphics/SVG/1.1/DTD/svg11.dtd">
<svg version="1.1" xmlns="http://www.w3.org/2000/svg" xmlns:xlink="http://www.w3.org/1999/xlink" width="33.0933" height="20.7642">
 <g>
  <rect height="20.7642" opacity="0" width="33.0933" x="0" y="0"/>
  <path d="M16.5527 20.7642C26.3306 20.7642 33.0933 12.854 33.0933 10.3882C33.0933 7.91016 26.3184 0.012207 16.5527 0.012207C6.89697 0.012207 0 7.91016 0 10.3882C0 12.854 6.89697 20.7642 16.5527 20.7642ZM16.5527 17.1875C12.7441 17.1875 9.729 14.0991 9.7168 10.3882C9.70459 6.57959 12.7441 3.58887 16.5527 3.58887C20.3247 3.58887 23.3765 6.57959 23.3765 10.3882C23.3765 14.0991 20.3247 17.1875 16.5527 17.1875ZM16.5527 12.8418C17.9077 12.8418 19.0308 11.731 19.0308 10.3882C19.0308 9.0332 17.9077 7.92236 16.5527 7.92236C15.1855 7.92236 14.0625 9.0332 14.0625 10.3882C14.0625 11.731 15.1855 12.8418 16.5527 12.8418Z" fill="#000000"/>
 </g>
</svg>
