<?xml version="1.0" encoding="UTF-8"?>
<!--Generator: Apple Native CoreSVG 175.5-->
<!DOCTYPE svg
PUBLIC "-//W3C//DTD SVG 1.1//EN"
       "http://www.w3.org/Graphics/SVG/1.1/DTD/svg11.dtd">
<svg version="1.1" xmlns="http://www.w3.org/2000/svg" xmlns:xlink="http://www.w3.org/1999/xlink" width="27.9785" height="18.2007">
 <g>
  <rect height="18.2007" opacity="0" width="27.9785" x="0" y="0"/>
  <path d="M21.5454 18.1885C23.4253 18.1885 25.1831 17.1631 25.9399 15.5762L25.9888 15.5762L25.9888 17.1875C25.9888 17.7979 26.4038 18.2007 26.9775 18.2007C27.5635 18.2007 27.9785 17.7979 27.9785 17.1387L27.9785 8.99658C27.9785 6.33545 26.0254 4.61426 22.9248 4.61426C20.6299 4.61426 18.7134 5.62744 18.0176 7.20215C17.8833 7.50732 17.7856 7.80029 17.7856 8.05664C17.7856 8.59375 18.1885 8.94775 18.7134 8.94775C19.0918 8.94775 19.3848 8.80127 19.5679 8.45947C20.2515 7.04346 21.2891 6.38428 22.876 6.38428C24.7803 6.38428 25.9155 7.44629 25.9155 9.15527L25.9155 10.2051L21.9727 10.4248C18.8843 10.5957 17.1631 12.0239 17.1631 14.2944C17.1631 16.626 18.9575 18.1885 21.5454 18.1885ZM22.0459 16.4917C20.3979 16.4917 19.2749 15.5884 19.2749 14.2456C19.2749 12.9517 20.3125 12.085 22.229 11.9629L25.9155 11.731L25.9155 13.0249C25.9155 14.9658 24.1943 16.4917 22.0459 16.4917ZM1.02539 18.103C1.67236 18.103 1.98975 17.8589 2.22168 17.1753L3.79639 12.8662L10.9985 12.8662L12.5732 17.1753C12.8052 17.8589 13.1226 18.103 13.7573 18.103C14.4043 18.103 14.8193 17.7124 14.8193 17.1021C14.8193 16.8945 14.7827 16.6992 14.6851 16.4429L8.95996 1.19629C8.6792 0.45166 8.17871 0.0732422 7.39746 0.0732422C6.64062 0.0732422 6.12793 0.439453 5.85938 1.18408L0.134277 16.4551C0.0366211 16.7114 0 16.9067 0 17.1143C0 17.7246 0.390625 18.103 1.02539 18.103ZM4.39453 11.0107L7.36084 2.79541L7.42188 2.79541L10.3882 11.0107Z" fill="#000000"/>
 </g>
</svg>
