<?xml version="1.0" encoding="UTF-8"?>
<!--Generator: Apple Native CoreSVG 175.5-->
<!DOCTYPE svg
PUBLIC "-//W3C//DTD SVG 1.1//EN"
       "http://www.w3.org/Graphics/SVG/1.1/DTD/svg11.dtd">
<svg version="1.1" xmlns="http://www.w3.org/2000/svg" xmlns:xlink="http://www.w3.org/1999/xlink" width="24.9267" height="29.3335">
 <g>
  <rect height="29.3335" opacity="0" width="24.9267" x="0" y="0"/>
  <path d="M0.12422 21.3135C-0.364061 23.2666 0.600294 24.4873 2.78535 24.4873L22.1335 24.4873C24.3308 24.4873 25.2829 23.2666 24.8068 21.3135L21.4133 7.53174C20.9616 5.68848 19.9362 4.71191 17.9587 4.71191L6.97236 4.71191C4.98262 4.71191 3.96943 5.68848 3.50557 7.53174ZM1.97969 21.3135L5.26338 7.78809C5.4709 6.9458 5.97139 6.55518 6.88692 6.55518L18.0441 6.55518C18.9597 6.55518 19.4602 6.9458 19.6677 7.78809L22.9392 21.3135C23.1467 22.1191 22.7438 22.644 21.9504 22.644L2.96846 22.644C2.18721 22.644 1.78438 22.1191 1.97969 21.3135ZM12.4777 29.1992C13.0393 29.1992 13.3933 28.8208 13.3933 28.2227L13.3933 0.976562C13.3933 0.366211 13.0393 0 12.4777 0C11.904 0 11.55 0.366211 11.55 0.976562L11.55 28.2227C11.55 28.8208 11.904 29.1992 12.4777 29.1992Z" fill="#000000"/>
 </g>
</svg>
