<?xml version="1.0" encoding="UTF-8"?>
<!--Generator: Apple Native CoreSVG 175.5-->
<!DOCTYPE svg
PUBLIC "-//W3C//DTD SVG 1.1//EN"
       "http://www.w3.org/Graphics/SVG/1.1/DTD/svg11.dtd">
<svg version="1.1" xmlns="http://www.w3.org/2000/svg" xmlns:xlink="http://www.w3.org/1999/xlink" width="29.4067" height="24.6948">
 <g>
  <rect height="24.6948" opacity="0" width="29.4067" x="0" y="0"/>
  <path d="M15.7959 24.4507C20.9351 24.4507 24.3652 22.6318 24.3652 19.9463C24.3652 17.5415 22.3145 17.0044 22.3145 15.5884C22.3145 13.6353 29.4067 13.2446 29.4067 8.22754C29.4067 3.27148 24.292 0 16.6992 0C6.72607 0 0 4.98047 0 12.439C0 19.6167 6.38428 24.4507 15.7959 24.4507ZM15.7959 22.3633C7.53174 22.3633 2.0874 18.3838 2.0874 12.439C2.0874 6.21338 7.87354 2.0874 16.6992 2.0874C23.1079 2.0874 27.3193 4.57764 27.3193 8.22754C27.3193 12.4878 20.1782 11.9141 20.1782 15.6006C20.1782 17.688 22.2778 18.3472 22.2778 19.7876C22.2778 21.3379 19.7266 22.3633 15.7959 22.3633ZM14.7949 19.4824C16.6504 19.4824 18.1763 17.9565 18.1763 16.0889C18.1763 14.2456 16.6504 12.7197 14.7949 12.7197C12.9395 12.7197 11.4136 14.2456 11.4136 16.0889C11.4136 17.9565 12.9395 19.4824 14.7949 19.4824ZM14.7949 18.0664C13.7085 18.0664 12.8296 17.1875 12.8296 16.0889C12.8296 14.8804 13.7573 14.1602 14.7705 14.1479C15.8081 14.1357 16.7603 14.8438 16.7603 16.0889C16.7603 17.1875 15.8936 18.0664 14.7949 18.0664ZM6.16455 14.1113C7.2876 14.1113 8.19092 13.1836 8.19092 12.0605C8.19092 10.9375 7.2876 10.0342 6.16455 10.0342C5.05371 10.0342 4.13818 10.9375 4.13818 12.0605C4.13818 13.1836 5.05371 14.1113 6.16455 14.1113ZM10.6201 10.2051C12.0361 10.2051 13.1836 9.06982 13.1836 7.62939C13.1836 6.22559 12.0239 5.10254 10.6201 5.10254C9.19189 5.10254 8.04443 6.22559 8.04443 7.62939C8.04443 9.06982 9.19189 10.2051 10.6201 10.2051ZM16.8091 8.22754C17.9565 8.22754 18.8599 7.31201 18.8599 6.16455C18.8599 5.0293 17.9565 4.11377 16.8091 4.11377C15.686 4.11377 14.7461 5.0293 14.7461 6.16455C14.7461 7.31201 15.686 8.22754 16.8091 8.22754ZM22.3877 9.00879C23.3032 9.00879 24.0356 8.26416 24.0356 7.33643C24.0356 6.4209 23.3032 5.67627 22.3877 5.67627C21.46 5.67627 20.7031 6.4209 20.7031 7.33643C20.7031 8.26416 21.46 9.00879 22.3877 9.00879Z" fill="#000000"/>
 </g>
</svg>
