<?xml version="1.0" encoding="UTF-8"?>
<!--Generator: Apple Native CoreSVG 175.5-->
<!DOCTYPE svg
PUBLIC "-//W3C//DTD SVG 1.1//EN"
       "http://www.w3.org/Graphics/SVG/1.1/DTD/svg11.dtd">
<svg version="1.1" xmlns="http://www.w3.org/2000/svg" xmlns:xlink="http://www.w3.org/1999/xlink" width="24.9023" height="24.9146">
 <g>
  <rect height="24.9146" opacity="0" width="24.9023" x="0" y="0"/>
  <path d="M12.4512 24.9146C19.2627 24.9146 24.9023 19.2749 24.9023 12.4634C24.9023 5.66406 19.2505 0.012207 12.439 0.012207C5.63965 0.012207 0 5.66406 0 12.4634C0 19.2749 5.65186 24.9146 12.4512 24.9146ZM12.4512 17.627C7.65381 17.627 4.22363 13.6963 4.22363 12.4756C4.22363 11.2427 7.61719 7.32422 12.4512 7.32422C17.2852 7.32422 20.6665 11.2427 20.6665 12.4756C20.6665 13.6963 17.2974 17.627 12.4512 17.627ZM12.4512 15.8447C14.3188 15.8447 15.8325 14.3066 15.8325 12.4756C15.8325 10.5957 14.3188 9.10645 12.4512 9.10645C10.5713 9.10645 9.05762 10.5957 9.06982 12.4756C9.06982 14.3066 10.5713 15.8447 12.4512 15.8447ZM12.4634 13.9648C11.6577 13.9648 10.9619 13.2568 10.9619 12.4756C10.9619 11.6821 11.6577 10.9863 12.4634 10.9863C13.2568 10.9863 13.9404 11.6821 13.9404 12.4756C13.9404 13.2568 13.2568 13.9648 12.4634 13.9648Z" fill="#000000"/>
 </g>
</svg>
