<?xml version="1.0" encoding="UTF-8"?>
<!--Generator: Apple Native CoreSVG 175.5-->
<!DOCTYPE svg
PUBLIC "-//W3C//DTD SVG 1.1//EN"
       "http://www.w3.org/Graphics/SVG/1.1/DTD/svg11.dtd">
<svg version="1.1" xmlns="http://www.w3.org/2000/svg" xmlns:xlink="http://www.w3.org/1999/xlink" width="28.1283" height="28.232">
 <g>
  <rect height="28.232" opacity="0" width="28.1283" x="0" y="0"/>
  <path d="M0.392269 14.9766L4.29852 18.6753C5.11639 19.4688 6.20282 18.8462 6.20282 17.7842L6.20282 15.1963L12.9777 15.1963L12.9777 21.9957L10.3776 21.9957C9.32782 21.9957 8.70526 23.0699 9.48651 23.8877L13.1852 27.794C13.7101 28.3433 14.4548 28.3189 14.9553 27.7818L18.6418 23.8877C19.4352 23.0699 18.8127 21.9957 17.7507 21.9957L15.1628 21.9957L15.1628 15.1963L21.9255 15.1963L21.9255 17.7842C21.9255 18.8462 22.9997 19.4688 23.8298 18.6753L27.7238 14.9888C28.2487 14.4761 28.2731 13.7437 27.736 13.2188L23.8298 9.52007C22.9997 8.73882 21.9255 9.36138 21.9255 10.4112L21.9255 13.0113L15.1628 13.0113L15.1628 6.19976L17.7507 6.19976C18.8127 6.19976 19.4352 5.12554 18.6418 4.30767L14.9431 0.401422C14.4304-0.147895 13.6857-0.123481 13.173 0.413629L9.48651 4.30767C8.70526 5.12554 9.32782 6.19976 10.3776 6.19976L12.9777 6.19976L12.9777 13.0113L6.20282 13.0113L6.20282 10.4112C6.20282 9.36138 5.11639 8.73882 4.29852 9.52007L0.404476 13.2066C-0.120426 13.7193-0.14484 14.4517 0.392269 14.9766Z" fill="#000000"/>
 </g>
</svg>
