<?xml version="1.0" encoding="UTF-8"?>
<!--Generator: Apple Native CoreSVG 175.5-->
<!DOCTYPE svg
PUBLIC "-//W3C//DTD SVG 1.1//EN"
       "http://www.w3.org/Graphics/SVG/1.1/DTD/svg11.dtd">
<svg version="1.1" xmlns="http://www.w3.org/2000/svg" xmlns:xlink="http://www.w3.org/1999/xlink" width="24.9023" height="24.9146">
 <g>
  <rect height="24.9146" opacity="0" width="24.9023" x="0" y="0"/>
  <path d="M6.06689 13.7695C5.57861 13.7695 5.2124 13.4033 5.2124 12.915C5.2124 12.439 5.57861 12.0728 6.06689 12.0728L11.5967 12.0728L11.5967 4.6875C11.5967 4.21143 11.9629 3.84521 12.439 3.84521C12.915 3.84521 13.2935 4.21143 13.2935 4.6875L13.2935 12.915C13.2935 13.4033 12.915 13.7695 12.439 13.7695ZM12.4512 24.9023C19.2627 24.9023 24.9023 19.2505 24.9023 12.4512C24.9023 5.63965 19.2505 0 12.439 0C5.63965 0 0 5.63965 0 12.4512C0 19.2505 5.65186 24.9023 12.4512 24.9023Z" fill="#000000"/>
 </g>
</svg>
