<?xml version="1.0" encoding="UTF-8"?>
<!--Generator: Apple Native CoreSVG 175.5-->
<!DOCTYPE svg
PUBLIC "-//W3C//DTD SVG 1.1//EN"
       "http://www.w3.org/Graphics/SVG/1.1/DTD/svg11.dtd">
<svg version="1.1" xmlns="http://www.w3.org/2000/svg" xmlns:xlink="http://www.w3.org/1999/xlink" width="26.501" height="24.8557">
 <g>
  <rect height="24.8557" opacity="0" width="26.501" x="0" y="0"/>
  <path d="M0.269053 21.8822C2.30763 24.8119 6.81202 25.8129 9.69288 23.8109C12.1831 22.0775 12.7324 19.392 11.0845 17.0482C9.60743 14.9242 6.93409 14.3261 5.17628 15.5834C3.14991 17.0238 3.96778 19.0014 2.72267 19.8803C1.68507 20.6249 0.964854 20.161 0.366709 20.5639C-0.0239158 20.808-0.1704 21.2719 0.269053 21.8822ZM11.5483 15.2416C12.4395 16.1327 13.1108 17.3168 13.2695 18.2811C14.2583 18.1225 15.0518 17.6586 15.8818 16.8285C16.0161 16.7064 16.1382 16.5722 16.2603 16.4257C15.7232 13.4838 13.2695 11.0668 10.3765 10.5297C10.23 10.6517 10.0957 10.786 9.96144 10.9203C9.13136 11.7504 8.6797 12.5683 8.52101 13.5326C9.47315 13.6913 10.6694 14.3505 11.5483 15.2416ZM23.0596 0.727432C22.437 1.17909 15.6499 5.82997 11.4873 9.50429C14.2461 10.371 16.4067 12.5194 17.2857 15.3148C20.9844 11.1522 25.6231 4.37733 26.0747 3.74257C27.5151 1.72841 25.0005-0.712998 23.0596 0.727432Z" fill="#000000"/>
 </g>
</svg>
