<?xml version="1.0" encoding="UTF-8"?>
<!--Generator: Apple Native CoreSVG 175.5-->
<!DOCTYPE svg
PUBLIC "-//W3C//DTD SVG 1.1//EN"
       "http://www.w3.org/Graphics/SVG/1.1/DTD/svg11.dtd">
<svg version="1.1" xmlns="http://www.w3.org/2000/svg" xmlns:xlink="http://www.w3.org/1999/xlink" width="21.9141" height="21.9248">
 <g>
  <rect height="21.9248" opacity="0" width="21.9141" x="0" y="0"/>
  <path d="M10.957 21.9141C16.9512 21.9141 21.9141 16.9404 21.9141 10.957C21.9141 4.96289 16.9404 0 10.9463 0C4.96289 0 0 4.96289 0 10.957C0 16.9404 4.97363 21.9141 10.957 21.9141ZM10.957 20.0879C5.88672 20.0879 1.83691 16.0273 1.83691 10.957C1.83691 5.88672 5.87598 1.82617 10.9463 1.82617C16.0166 1.82617 20.0879 5.88672 20.0879 10.957C20.0879 16.0273 16.0273 20.0879 10.957 20.0879ZM5.38184 12.2676C5.38184 14.8457 7.26172 16.457 9.76465 16.457C9.89355 16.457 11.1826 16.457 11.2363 16.457C11.7197 16.457 12.0742 16.1885 12.0742 15.6943C12.0742 15.1895 11.7197 14.9209 11.2578 14.9209C11.2148 14.9209 9.89355 14.9209 9.76465 14.9209C8.14258 14.9209 6.96094 13.8789 6.96094 12.1816C6.96094 10.5273 8.1748 9.625 9.75391 9.625L12.9658 9.625L14.2334 9.57129L13.6104 10.0439L12.2676 11.333C12.1064 11.4727 12.0312 11.6875 12.0312 11.8809C12.0312 12.332 12.3643 12.665 12.7939 12.665C13.0195 12.665 13.1914 12.5898 13.3418 12.4395L16.21 9.51758C16.3818 9.33496 16.5 9.12012 16.5 8.8623C16.5 8.61523 16.3818 8.38965 16.21 8.20703L13.3525 5.30664C13.2021 5.14551 13.0303 5.08105 12.8047 5.08105C12.3643 5.08105 12.0312 5.41406 12.0312 5.85449C12.0312 6.08008 12.1279 6.28418 12.2783 6.41309L13.3848 7.4873L14.2334 8.15332L12.9658 8.12109L9.75391 8.12109C7.25098 8.12109 5.38184 9.68945 5.38184 12.2676Z" fill="#000000"/>
 </g>
</svg>
