<?xml version="1.0" encoding="UTF-8"?>
<!--Generator: Apple Native CoreSVG 175.5-->
<!DOCTYPE svg
PUBLIC "-//W3C//DTD SVG 1.1//EN"
       "http://www.w3.org/Graphics/SVG/1.1/DTD/svg11.dtd">
<svg version="1.1" xmlns="http://www.w3.org/2000/svg" xmlns:xlink="http://www.w3.org/1999/xlink" width="24.9023" height="24.9146">
 <g>
  <rect height="24.9146" opacity="0" width="24.9023" x="0" y="0"/>
  <path d="M12.4512 24.9023C19.2627 24.9023 24.9023 19.2505 24.9023 12.4512C24.9023 5.63965 19.2505 0 12.439 0C5.63965 0 0 5.63965 0 12.4512C0 19.2505 5.65186 24.9023 12.4512 24.9023ZM12.4512 22.8271C6.68945 22.8271 2.0874 18.2129 2.0874 12.4512C2.0874 6.68945 6.67725 2.0752 12.439 2.0752C18.2007 2.0752 22.8271 6.68945 22.8271 12.4512C22.8271 18.2129 18.2129 22.8271 12.4512 22.8271ZM8.99658 17.2119L10.1929 17.2119C10.8032 17.2119 11.084 16.8823 11.084 16.4062L11.084 8.47168C11.084 8.00781 10.8032 7.67822 10.1929 7.67822L8.99658 7.67822C8.39844 7.67822 8.11768 8.00781 8.11768 8.47168L8.11768 16.4062C8.11768 16.8823 8.39844 17.2119 8.99658 17.2119ZM14.7095 17.2119L15.9058 17.2119C16.4917 17.2119 16.7725 16.8823 16.7725 16.4062L16.7725 8.47168C16.7725 8.00781 16.4917 7.67822 15.9058 7.67822L14.7095 7.67822C14.0991 7.67822 13.8184 8.00781 13.8184 8.47168L13.8184 16.4062C13.8184 16.8823 14.0991 17.2119 14.7095 17.2119Z" fill="#000000"/>
 </g>
</svg>
