<?xml version="1.0" encoding="UTF-8"?>
<!--Generator: Apple Native CoreSVG 175.5-->
<!DOCTYPE svg
PUBLIC "-//W3C//DTD SVG 1.1//EN"
       "http://www.w3.org/Graphics/SVG/1.1/DTD/svg11.dtd">
<svg version="1.1" xmlns="http://www.w3.org/2000/svg" xmlns:xlink="http://www.w3.org/1999/xlink" width="21.9141" height="21.9248">
 <g>
  <rect height="21.9248" opacity="0" width="21.9141" x="0" y="0"/>
  <path d="M10.957 21.9141C16.9512 21.9141 21.9141 16.9404 21.9141 10.957C21.9141 4.96289 16.9404 0 10.9463 0C4.96289 0 0 4.96289 0 10.957C0 16.9404 4.97363 21.9141 10.957 21.9141ZM10.957 20.0879C5.88672 20.0879 1.83691 16.0273 1.83691 10.957C1.83691 5.88672 5.87598 1.82617 10.9463 1.82617C16.0166 1.82617 20.0879 5.88672 20.0879 10.957C20.0879 16.0273 16.0273 20.0879 10.957 20.0879ZM18.3047 18.0361L18.2725 17.918C17.7461 16.3389 14.9102 14.6094 10.957 14.6094C7.01465 14.6094 4.17871 16.3389 3.6416 17.9072L3.60938 18.0361C5.54297 19.9482 8.8623 21.0654 10.957 21.0654C13.0625 21.0654 16.3496 19.959 18.3047 18.0361ZM10.957 12.7832C13.0303 12.8047 14.6416 11.043 14.6416 8.7334C14.6416 6.56348 13.0195 4.76953 10.957 4.76953C8.89453 4.76953 7.26172 6.56348 7.27246 8.7334C7.2832 11.043 8.89453 12.7617 10.957 12.7832Z" fill="#000000"/>
 </g>
</svg>
