<?xml version="1.0" encoding="UTF-8"?>
<!--Generator: Apple Native CoreSVG 175.5-->
<!DOCTYPE svg
PUBLIC "-//W3C//DTD SVG 1.1//EN"
       "http://www.w3.org/Graphics/SVG/1.1/DTD/svg11.dtd">
<svg version="1.1" xmlns="http://www.w3.org/2000/svg" xmlns:xlink="http://www.w3.org/1999/xlink" width="24.9023" height="24.9146">
 <g>
  <rect height="24.9146" opacity="0" width="24.9023" x="0" y="0"/>
  <path d="M2.0874 12.4512C2.0874 11.3403 2.2583 10.2661 2.57568 9.27734L0.65918 8.47168C0.244141 9.729 0 11.0596 0 12.4512C0 13.8306 0.244141 15.1733 0.671387 16.4307L2.57568 15.625C2.2583 14.6362 2.0874 13.562 2.0874 12.4512ZM7.70264 3.19824L6.92139 1.31836C4.50439 2.52686 2.51465 4.5166 1.30615 6.93359L3.21045 7.72705C4.18701 5.78613 5.77393 4.19922 7.70264 3.19824ZM12.439 2.0752C13.5498 2.0752 14.624 2.24609 15.6372 2.57568L16.4185 0.671387C15.1611 0.244141 13.8184 0 12.439 0C11.0596 0 9.70459 0.244141 8.44727 0.671387L9.25293 2.57568C10.2539 2.24609 11.3281 2.0752 12.439 2.0752ZM21.6919 7.71484L23.584 6.93359C22.3633 4.5166 20.3735 2.52686 17.9565 1.30615L17.1753 3.19824C19.104 4.18701 20.7031 5.77393 21.6919 7.71484ZM22.8271 12.4512C22.8271 13.562 22.6562 14.6362 22.3389 15.6372L24.231 16.4429C24.6582 15.1855 24.9023 13.8306 24.9023 12.4512C24.9023 11.0596 24.6582 9.7168 24.231 8.45947L22.3267 9.26514C22.6562 10.2661 22.8271 11.3403 22.8271 12.4512ZM17.1753 21.6919L17.9565 23.5962C20.3857 22.3755 22.3755 20.3857 23.5718 17.9688L21.7041 17.1875C20.7153 19.1284 19.1162 20.7031 17.1753 21.6919ZM12.4512 22.8271C11.3281 22.8271 10.2539 22.6562 9.25293 22.3267L8.45947 24.231C9.7168 24.6582 11.0718 24.9023 12.4512 24.9023C13.8306 24.9023 15.1733 24.6582 16.4185 24.2432L15.625 22.3389C14.624 22.6562 13.562 22.8271 12.4512 22.8271ZM3.21045 17.1875L1.31836 17.9688C2.53906 20.3857 4.50439 22.3755 6.92139 23.584L7.70264 21.6797C5.77393 20.6909 4.18701 19.1162 3.21045 17.1875ZM12.4268 20.9717C17.1753 20.9717 20.9595 17.1875 20.9473 12.4512C20.9351 7.71484 17.1509 3.93066 12.4146 3.93066C7.67822 3.93066 3.91846 7.70264 3.91846 12.4512C3.91846 17.1997 7.69043 20.9717 12.4268 20.9717Z" fill="#000000"/>
 </g>
</svg>
