<?xml version="1.0" encoding="UTF-8"?>
<!--Generator: Apple Native CoreSVG 175.5-->
<!DOCTYPE svg
PUBLIC "-//W3C//DTD SVG 1.1//EN"
       "http://www.w3.org/Graphics/SVG/1.1/DTD/svg11.dtd">
<svg version="1.1" xmlns="http://www.w3.org/2000/svg" xmlns:xlink="http://www.w3.org/1999/xlink" width="24.9023" height="24.9146">
 <g>
  <rect height="24.9146" opacity="0" width="24.9023" x="0" y="0"/>
  <path d="M12.4512 24.9023C19.2627 24.9023 24.9023 19.2505 24.9023 12.4512C24.9023 5.63965 19.2505 0 12.439 0C5.63965 0 0 5.63965 0 12.4512C0 19.2505 5.65186 24.9023 12.4512 24.9023ZM12.4634 6.04248C13.0249 6.04248 13.4155 6.43311 13.4155 6.99463L13.4155 13.2568L13.3057 15.9424L14.5874 14.4165L16.0645 12.915C16.2354 12.7197 16.4673 12.6343 16.7358 12.6343C17.2607 12.6343 17.6636 13.0249 17.6636 13.5498C17.6636 13.8184 17.5659 14.0381 17.395 14.209L13.208 18.3838C12.9639 18.6279 12.7441 18.75 12.4634 18.75C12.1948 18.75 11.9873 18.6401 11.731 18.3838L7.53174 14.209C7.36084 14.0381 7.2876 13.8184 7.2876 13.5498C7.2876 13.0249 7.67822 12.6343 8.20312 12.6343C8.45947 12.6343 8.70361 12.7319 8.87451 12.915L10.3638 14.4165L11.6211 15.9302L11.5112 13.2568L11.5112 6.99463C11.5112 6.43311 11.9141 6.04248 12.4634 6.04248Z" fill="#000000"/>
 </g>
</svg>
