<?xml version="1.0" encoding="UTF-8"?>
<!--Generator: Apple Native CoreSVG 175.5-->
<!DOCTYPE svg
PUBLIC "-//W3C//DTD SVG 1.1//EN"
       "http://www.w3.org/Graphics/SVG/1.1/DTD/svg11.dtd">
<svg version="1.1" xmlns="http://www.w3.org/2000/svg" xmlns:xlink="http://www.w3.org/1999/xlink" width="20.8374" height="20.6177">
 <g>
  <rect height="20.6177" opacity="0" width="20.8374" x="0" y="0"/>
  <path d="M0.634766 2.40479L20.1904 2.40479C20.5811 2.40479 20.8374 2.16064 20.8374 1.77002L20.8374 1.18408C20.8374 0.805664 20.5811 0.561523 20.1904 0.561523L0.634766 0.561523C0.244141 0.561523 0 0.805664 0 1.18408L0 1.77002C0 2.16064 0.244141 2.40479 0.634766 2.40479ZM0.952148 10.144L19.8853 10.144C20.4712 10.144 20.8374 9.79004 20.8374 9.2041L20.8374 7.15332C20.8374 6.55518 20.4712 6.20117 19.8853 6.20117L0.952148 6.20117C0.354004 6.20117 0 6.55518 0 7.15332L0 9.2041C0 9.79004 0.354004 10.144 0.952148 10.144ZM0.952148 20.6177L19.8853 20.6177C20.4712 20.6177 20.8374 20.2637 20.8374 19.6655L20.8374 14.8193C20.8374 14.2212 20.4712 13.8672 19.8853 13.8672L0.952148 13.8672C0.354004 13.8672 0 14.2212 0 14.8193L0 19.6655C0 20.2637 0.354004 20.6177 0.952148 20.6177Z" fill="#000000"/>
 </g>
</svg>
