<?xml version="1.0" encoding="UTF-8"?>
<!--Generator: Apple Native CoreSVG 175.5-->
<!DOCTYPE svg
PUBLIC "-//W3C//DTD SVG 1.1//EN"
       "http://www.w3.org/Graphics/SVG/1.1/DTD/svg11.dtd">
<svg version="1.1" xmlns="http://www.w3.org/2000/svg" xmlns:xlink="http://www.w3.org/1999/xlink" width="21.6675" height="29.3579">
 <g>
  <rect height="29.3579" opacity="0" width="21.6675" x="0" y="0"/>
  <path d="M3.83301 27.5513L17.8345 27.5513C20.3857 27.5513 21.6675 26.2817 21.6675 23.7671L21.6675 11.5845C21.6675 9.06982 20.3857 7.80029 17.8345 7.80029L14.4287 7.80029L14.4287 9.76562L17.7979 9.76562C19.0063 9.76562 19.7021 10.4248 19.7021 11.6943L19.7021 23.6572C19.7021 24.9268 19.0063 25.5859 17.7979 25.5859L3.85742 25.5859C2.63672 25.5859 1.96533 24.9268 1.96533 23.6572L1.96533 11.6943C1.96533 10.4248 2.63672 9.76562 3.85742 9.76562L7.23877 9.76562L7.23877 7.80029L3.83301 7.80029C1.28174 7.80029 0 9.06982 0 11.5845L0 23.7671C0 26.2817 1.28174 27.5513 3.83301 27.5513ZM10.8276 17.9932C11.3525 17.9932 11.8042 17.5537 11.8042 17.041L11.8042 4.50439L11.731 2.67334L12.5488 3.54004L14.4043 5.51758C14.5752 5.71289 14.8193 5.81055 15.0635 5.81055C15.564 5.81055 15.9546 5.44434 15.9546 4.94385C15.9546 4.6875 15.8447 4.49219 15.6616 4.30908L11.5356 0.32959C11.2915 0.0854492 11.084 0 10.8276 0C10.5835 0 10.376 0.0854492 10.1196 0.32959L5.99365 4.30908C5.81055 4.49219 5.71289 4.6875 5.71289 4.94385C5.71289 5.44434 6.0791 5.81055 6.5918 5.81055C6.82373 5.81055 7.09229 5.71289 7.26318 5.51758L9.10645 3.54004L9.93652 2.67334L9.86328 4.50439L9.86328 17.041C9.86328 17.5537 10.3027 17.9932 10.8276 17.9932Z" fill="#000000"/>
 </g>
</svg>
