<?xml version="1.0" encoding="UTF-8"?>
<!--Generator: Apple Native CoreSVG 175.5-->
<!DOCTYPE svg
PUBLIC "-//W3C//DTD SVG 1.1//EN"
       "http://www.w3.org/Graphics/SVG/1.1/DTD/svg11.dtd">
<svg version="1.1" xmlns="http://www.w3.org/2000/svg" xmlns:xlink="http://www.w3.org/1999/xlink" width="26.9531" height="21.0571">
 <g>
  <rect height="21.0571" opacity="0" width="26.9531" x="0" y="0"/>
  <path d="M3.83301 21.0571L23.4863 21.0571C25.6836 21.0571 26.9531 19.7876 26.9531 17.2729L26.9531 3.79639C26.9531 1.29395 25.6714 0.0244141 23.1201 0.0244141L3.4668 0.0244141C1.26953 0.0244141 0 1.28174 0 3.79639L0 17.2729C0 19.7998 1.28174 21.0571 3.83301 21.0571ZM3.75977 19.1895C2.53906 19.1895 1.86768 18.5425 1.86768 17.2729L1.86768 3.79639C1.86768 2.53906 2.53906 1.89209 3.75977 1.89209L23.1934 1.89209C24.3896 1.89209 25.0854 2.53906 25.0854 3.80859L25.0854 17.2852C25.0854 18.5425 24.3896 19.1895 23.1934 19.1895ZM13.501 13.7939C14.3555 13.7939 15.1855 13.4399 16.04 12.5977L25.9521 2.85645L24.6826 1.57471L14.978 11.1572C14.4531 11.6821 13.9771 11.9141 13.501 11.9141C13.0127 11.9141 12.5366 11.6699 12.0239 11.1572L2.27051 1.52588L0.98877 2.80762L10.9619 12.5977C11.8164 13.4399 12.6343 13.7939 13.501 13.7939ZM24.5605 19.458L25.8301 18.1763L17.9321 10.376L16.6626 11.6455ZM1.15967 18.1885L2.4292 19.4702L10.3394 11.6455L9.05762 10.376Z" fill="#000000"/>
 </g>
</svg>
