<?xml version="1.0" encoding="UTF-8"?>
<!--Generator: Apple Native CoreSVG 175-->
<!DOCTYPE svg
PUBLIC "-//W3C//DTD SVG 1.1//EN"
       "http://www.w3.org/Graphics/SVG/1.1/DTD/svg11.dtd">
<svg version="1.1" xmlns="http://www.w3.org/2000/svg" xmlns:xlink="http://www.w3.org/1999/xlink" width="21.5625" height="16.8457">
 <g>
  <rect height="16.8457" opacity="0" width="21.5625" x="0" y="0"/>
  <path d="M3.06641 16.8457L18.7891 16.8457Q20.1074 16.8457 20.835 16.0889Q21.5625 15.332 21.5625 13.8184L21.5625 3.03711Q21.5625 1.5332 20.7959 0.776367Q20.0293 0.0195312 18.4961 0.0195312L2.77344 0.0195312Q1.45508 0.0195312 0.727539 0.776367Q0 1.5332 0 3.03711L0 13.8184Q0 15.332 0.766602 16.0889Q1.5332 16.8457 3.06641 16.8457ZM3.00781 15.3516Q2.27539 15.3516 1.88477 14.9658Q1.49414 14.5801 1.49414 13.8184L1.49414 3.03711Q1.49414 2.28516 1.88477 1.89941Q2.27539 1.51367 3.00781 1.51367L18.5547 1.51367Q19.2773 1.51367 19.6729 1.89941Q20.0684 2.28516 20.0684 3.04688L20.0684 13.8281Q20.0684 14.5801 19.6729 14.9658Q19.2773 15.3516 18.5547 15.3516ZM10.8008 11.0352Q11.3184 11.0352 11.8164 10.8105Q12.3145 10.5859 12.832 10.0781L20.7617 2.28516L19.7461 1.25977L11.9824 8.92578Q11.6602 9.23828 11.3721 9.38477Q11.084 9.53125 10.8008 9.53125Q10.5078 9.53125 10.2197 9.37988Q9.93164 9.22852 9.61914 8.92578L1.81641 1.2207L0.791016 2.24609L8.76953 10.0781Q9.27734 10.5859 9.78027 10.8105Q10.2832 11.0352 10.8008 11.0352ZM19.6484 15.5664L20.6641 14.541L14.3457 8.30078L13.3301 9.31641ZM0.927734 14.5508L1.94336 15.5762L8.27148 9.31641L7.24609 8.30078Z" fill="rgba(255,255,255,0.85)"/>
 </g>
</svg>
