<?xml version="1.0" encoding="UTF-8"?>
<!--Generator: Apple Native CoreSVG 175.5-->
<!DOCTYPE svg
PUBLIC "-//W3C//DTD SVG 1.1//EN"
       "http://www.w3.org/Graphics/SVG/1.1/DTD/svg11.dtd">
<svg version="1.1" xmlns="http://www.w3.org/2000/svg" xmlns:xlink="http://www.w3.org/1999/xlink" width="24.9023" height="24.9146">
 <g>
  <rect height="24.9146" opacity="0" width="24.9023" x="0" y="0"/>
  <path d="M12.4512 24.9023C19.2627 24.9023 24.9023 19.2505 24.9023 12.4512C24.9023 5.63965 19.2505 0 12.439 0C5.63965 0 0 5.63965 0 12.4512C0 19.2505 5.65186 24.9023 12.4512 24.9023ZM12.4512 22.8271C6.68945 22.8271 2.0874 18.2129 2.0874 12.4512C2.0874 6.68945 6.67725 2.0752 12.439 2.0752C18.2007 2.0752 22.8271 6.68945 22.8271 12.4512C22.8271 18.2129 18.2129 22.8271 12.4512 22.8271ZM18.75 13.9404C18.75 11.0107 16.626 9.22852 13.7817 9.22852L10.1318 9.22852L8.69141 9.26514L9.65576 8.5083L10.9131 7.2876C11.084 7.14111 11.1938 6.90918 11.1938 6.65283C11.1938 6.15234 10.8154 5.77393 10.3149 5.77393C10.0586 5.77393 9.86328 5.84717 9.69238 6.03027L6.44531 9.32617C6.25 9.53369 6.11572 9.79004 6.11572 10.0708C6.11572 10.3638 6.25 10.6079 6.44531 10.8154L9.70459 14.1357C9.87549 14.3066 10.0708 14.3921 10.3271 14.3921C10.8154 14.3921 11.1938 14.0137 11.1938 13.501C11.1938 13.2812 11.1084 13.0371 10.9253 12.8784L9.39941 11.4136L8.69141 10.8765L10.1318 10.9375L13.7817 10.9375C15.5762 10.9375 16.9556 11.9629 16.9556 13.8428C16.9556 15.7715 15.6128 16.9556 13.7695 16.9556C13.623 16.9556 12.1216 16.9556 12.0728 16.9556C11.5479 16.9556 11.145 17.2607 11.145 17.8345C11.145 18.396 11.5479 18.7012 12.0972 18.7012C12.1582 18.7012 13.623 18.7012 13.7695 18.7012C16.6138 18.7012 18.75 16.8701 18.75 13.9404Z" fill="#000000"/>
 </g>
</svg>
