<?xml version="1.0" encoding="UTF-8"?>
<!--Generator: Apple Native CoreSVG 175.5-->
<!DOCTYPE svg
PUBLIC "-//W3C//DTD SVG 1.1//EN"
       "http://www.w3.org/Graphics/SVG/1.1/DTD/svg11.dtd">
<svg version="1.1" xmlns="http://www.w3.org/2000/svg" xmlns:xlink="http://www.w3.org/1999/xlink" width="24.9023" height="24.9146">
 <g>
  <rect height="24.9146" opacity="0" width="24.9023" x="0" y="0"/>
  <path d="M12.4512 24.9023C19.2627 24.9023 24.9023 19.2505 24.9023 12.4512C24.9023 5.63965 19.2505 0 12.439 0C5.63965 0 0 5.63965 0 12.4512C0 19.2505 5.65186 24.9023 12.4512 24.9023ZM12.4512 22.8271C6.68945 22.8271 2.0874 18.2129 2.0874 12.4512C2.0874 6.68945 6.67725 2.0752 12.439 2.0752C18.2007 2.0752 22.8271 6.68945 22.8271 12.4512C22.8271 18.2129 18.2129 22.8271 12.4512 22.8271ZM6.11572 13.9404C6.11572 16.8701 8.25195 18.7012 11.0962 18.7012C11.2427 18.7012 12.7075 18.7012 12.7686 18.7012C13.3179 18.7012 13.7207 18.396 13.7207 17.8345C13.7207 17.2607 13.3179 16.9556 12.793 16.9556C12.7441 16.9556 11.2427 16.9556 11.0962 16.9556C9.25293 16.9556 7.91016 15.7715 7.91016 13.8428C7.91016 11.9629 9.28955 10.9375 11.084 10.9375L14.7339 10.9375L16.1743 10.8765L15.4663 11.4136L13.9404 12.8784C13.7573 13.0371 13.6719 13.2812 13.6719 13.501C13.6719 14.0137 14.0503 14.3921 14.5386 14.3921C14.7949 14.3921 14.9902 14.3066 15.1611 14.1357L18.4204 10.8154C18.6157 10.6079 18.75 10.3638 18.75 10.0708C18.75 9.79004 18.6157 9.53369 18.4204 9.32617L15.1733 6.03027C15.0024 5.84717 14.8071 5.77393 14.5508 5.77393C14.0503 5.77393 13.6719 6.15234 13.6719 6.65283C13.6719 6.90918 13.7817 7.14111 13.9526 7.2876L15.21 8.5083L16.1743 9.26514L14.7339 9.22852L11.084 9.22852C8.23975 9.22852 6.11572 11.0107 6.11572 13.9404Z" fill="#000000"/>
 </g>
</svg>
