<?xml version="1.0" encoding="UTF-8"?>
<!--Generator: Apple Native CoreSVG 175.5-->
<!DOCTYPE svg
PUBLIC "-//W3C//DTD SVG 1.1//EN"
       "http://www.w3.org/Graphics/SVG/1.1/DTD/svg11.dtd">
<svg version="1.1" xmlns="http://www.w3.org/2000/svg" xmlns:xlink="http://www.w3.org/1999/xlink" width="16.6626" height="24.5728">
 <g>
  <rect height="24.5728" opacity="0" width="16.6626" x="0" y="0"/>
  <path d="M8.3252 18.0664C8.76465 18.0664 9.00879 17.7979 9.021 17.3584L9.14307 13.4521C9.15527 13.0005 8.80127 12.6587 8.3252 12.6587C7.83691 12.6587 7.49512 12.9883 7.50732 13.4399L7.62939 17.3584C7.6416 17.7979 7.88574 18.0664 8.3252 18.0664ZM8.3252 20.752C8.8623 20.752 9.30176 20.3247 9.30176 19.812C9.30176 19.2749 8.8623 18.8599 8.3252 18.8599C7.80029 18.8599 7.37305 19.2871 7.37305 19.812C7.37305 20.3247 7.8125 20.752 8.3252 20.752ZM2.74658 23.938L13.916 23.938C15.7104 23.938 16.6626 22.9614 16.6626 21.0327L16.6626 12.6221C16.6626 10.7056 15.7104 9.729 13.916 9.729L2.74658 9.729C0.952148 9.729 0 10.7056 0 12.6221L0 21.0327C0 22.9614 0.952148 23.938 2.74658 23.938ZM2.80762 22.0947C2.28271 22.0947 1.97754 21.7651 1.97754 21.167L1.97754 12.4878C1.97754 11.8896 2.28271 11.5723 2.80762 11.5723L13.855 11.5723C14.3921 11.5723 14.6851 11.8896 14.6851 12.4878L14.6851 21.167C14.6851 21.7651 14.3921 22.0947 13.855 22.0947ZM2.13623 10.6689L4.07715 10.6689L4.07715 6.55518C4.07715 3.4668 6.04248 1.84326 8.3252 1.84326C10.6079 1.84326 12.5977 3.4668 12.5977 6.55518L12.5977 10.6689L14.5264 10.6689L14.5264 6.81152C14.5264 2.22168 11.5234 0 8.3252 0C5.13916 0 2.13623 2.22168 2.13623 6.81152Z" fill="#000000"/>
 </g>
</svg>
