<?xml version="1.0" encoding="UTF-8"?>
<!--Generator: Apple Native CoreSVG 175.5-->
<!DOCTYPE svg
PUBLIC "-//W3C//DTD SVG 1.1//EN"
       "http://www.w3.org/Graphics/SVG/1.1/DTD/svg11.dtd">
<svg version="1.1" xmlns="http://www.w3.org/2000/svg" xmlns:xlink="http://www.w3.org/1999/xlink" width="13.3301" height="19.6582">
 <g>
  <rect height="19.6582" opacity="0" width="13.3301" x="0" y="0"/>
  <path d="M6.66016 14.4531C7.01172 14.4531 7.20703 14.2383 7.2168 13.8867L7.31445 10.7617C7.32422 10.4004 7.04102 10.127 6.66016 10.127C6.26953 10.127 5.99609 10.3906 6.00586 10.752L6.10352 13.8867C6.11328 14.2383 6.30859 14.4531 6.66016 14.4531ZM6.66016 16.6016C7.08984 16.6016 7.44141 16.2598 7.44141 15.8496C7.44141 15.4199 7.08984 15.0879 6.66016 15.0879C6.24023 15.0879 5.89844 15.4297 5.89844 15.8496C5.89844 16.2598 6.25 16.6016 6.66016 16.6016ZM2.19727 19.1504L11.1328 19.1504C12.5684 19.1504 13.3301 18.3691 13.3301 16.8262L13.3301 10.0977C13.3301 8.56445 12.5684 7.7832 11.1328 7.7832L2.19727 7.7832C0.761719 7.7832 0 8.56445 0 10.0977L0 16.8262C0 18.3691 0.761719 19.1504 2.19727 19.1504ZM2.24609 17.6758C1.82617 17.6758 1.58203 17.4121 1.58203 16.9336L1.58203 9.99023C1.58203 9.51172 1.82617 9.25781 2.24609 9.25781L11.084 9.25781C11.5137 9.25781 11.748 9.51172 11.748 9.99023L11.748 16.9336C11.748 17.4121 11.5137 17.6758 11.084 17.6758ZM1.70898 8.53516L3.26172 8.53516L3.26172 5.24414C3.26172 2.77344 4.83398 1.47461 6.66016 1.47461C8.48633 1.47461 10.0781 2.77344 10.0781 5.24414L10.0781 8.53516L11.6211 8.53516L11.6211 5.44922C11.6211 1.77734 9.21875 0 6.66016 0C4.11133 0 1.70898 1.77734 1.70898 5.44922Z" fill="#ffffff" fill-opacity="0.85"/>
 </g>
</svg>
