<?xml version="1.0" encoding="UTF-8"?>
<!--Generator: Apple Native CoreSVG 175.5-->
<!DOCTYPE svg
PUBLIC "-//W3C//DTD SVG 1.1//EN"
       "http://www.w3.org/Graphics/SVG/1.1/DTD/svg11.dtd">
<svg version="1.1" xmlns="http://www.w3.org/2000/svg" xmlns:xlink="http://www.w3.org/1999/xlink" width="24.9023" height="24.9146">
 <g>
  <rect height="24.9146" opacity="0" width="24.9023" x="0" y="0"/>
  <path d="M12.4512 24.9023C19.2627 24.9023 24.9023 19.2505 24.9023 12.4512C24.9023 5.63965 19.2505 0 12.439 0C5.63965 0 0 5.63965 0 12.4512C0 19.2505 5.65186 24.9023 12.4512 24.9023ZM9.46045 19.2261C8.06885 19.2261 7.36084 18.5303 7.36084 17.1021L7.36084 7.4707C7.36084 6.06689 8.06885 5.34668 9.46045 5.34668L11.853 5.34668L11.853 10.4126C11.853 11.2915 12.2681 11.6943 13.1348 11.6943L18.1274 11.6943L18.1274 17.1021C18.1274 18.5059 17.4316 19.2261 16.0278 19.2261ZM13.2324 10.6689C13.0005 10.6689 12.8662 10.5469 12.8662 10.3027L12.8662 5.41992C13.147 5.45654 13.4399 5.65186 13.7573 5.98145L17.4805 9.77783C17.8101 10.1074 18.0054 10.3882 18.042 10.6689Z" fill="#000000"/>
 </g>
</svg>
