<?xml version="1.0" encoding="UTF-8"?>
<!--Generator: Apple Native CoreSVG 175-->
<!DOCTYPE svg
PUBLIC "-//W3C//DTD SVG 1.1//EN"
       "http://www.w3.org/Graphics/SVG/1.1/DTD/svg11.dtd">
<svg version="1.1" xmlns="http://www.w3.org/2000/svg" xmlns:xlink="http://www.w3.org/1999/xlink" width="13.3203" height="19.6191">
 <g>
  <rect height="19.6191" opacity="0" width="13.3203" x="0" y="0"/>
  <path d="M2.1875 19.1504L11.1328 19.1504Q12.2266 19.1504 12.7734 18.5889Q13.3203 18.0273 13.3203 16.8262L13.3203 10.0977Q13.3203 8.91602 12.7734 8.35449Q12.2266 7.79297 11.1328 7.79297L2.1875 7.79297Q1.09375 7.79297 0.546875 8.35449Q0 8.91602 0 10.0977L0 16.8262Q0 18.0273 0.546875 18.5889Q1.09375 19.1504 2.1875 19.1504ZM2.24609 17.6855Q1.9043 17.6855 1.73828 17.5146Q1.57227 17.3438 1.57227 16.9336L1.57227 10Q1.57227 9.58984 1.73828 9.42383Q1.9043 9.25781 2.24609 9.25781L11.084 9.25781Q11.4258 9.25781 11.5869 9.42383Q11.748 9.58984 11.748 10L11.748 16.9336Q11.748 17.3438 11.5869 17.5146Q11.4258 17.6855 11.084 17.6855ZM1.68945 8.56445L3.26172 8.56445L3.26172 5.25391Q3.26172 4.02344 3.73047 3.18848Q4.19922 2.35352 4.97559 1.92871Q5.75195 1.50391 6.66016 1.50391Q7.57812 1.50391 8.34961 1.92871Q9.12109 2.35352 9.58984 3.18848Q10.0586 4.02344 10.0586 5.25391L10.0586 8.56445L11.6309 8.56445L11.6309 5.45898Q11.6309 4.08203 11.2207 3.05664Q10.8105 2.03125 10.1074 1.35254Q9.4043 0.673828 8.51074 0.336914Q7.61719 0 6.66016 0Q5.70312 0 4.81445 0.336914Q3.92578 0.673828 3.22266 1.35254Q2.51953 2.03125 2.10449 3.05664Q1.68945 4.08203 1.68945 5.45898Z" fill="rgba(255,255,255,0.85)"/>
 </g>
</svg>
