<?xml version="1.0" encoding="UTF-8"?>
<!--Generator: Apple Native CoreSVG 175.5-->
<!DOCTYPE svg
PUBLIC "-//W3C//DTD SVG 1.1//EN"
       "http://www.w3.org/Graphics/SVG/1.1/DTD/svg11.dtd">
<svg version="1.1" xmlns="http://www.w3.org/2000/svg" xmlns:xlink="http://www.w3.org/1999/xlink" width="20.9397" height="26.9653">
 <g>
  <rect height="26.9653" opacity="0" width="20.9397" x="0" y="0"/>
  <path d="M9.84349 26.0986C13.7253 26.0986 16.1301 24.4751 17.7414 21.2158C18.6692 19.4092 19.3894 17.2363 20.1584 14.7217C20.4758 13.6963 20.9397 12.3901 20.9397 11.8042C20.9397 11.145 20.4514 10.7056 19.7678 10.7056C18.9866 10.7056 18.5349 11.1938 17.9612 12.3535L16.2766 15.918C16.0935 16.3086 15.8982 16.4551 15.7029 16.4551C15.4587 16.4551 15.2268 16.3086 15.2878 15.8813L16.7649 3.14941C16.8503 2.34375 16.3254 1.87988 15.7273 1.75781C15.0803 1.63574 14.3479 1.95312 14.2136 2.74658L12.6633 12.2314C12.3337 12.1094 11.9675 12.0117 11.5769 11.9385L11.5769 1.26953C11.5769 0.57373 10.991 0 10.2707 0C9.55052 0 8.96459 0.57373 8.96459 1.26953L8.96459 11.8042C8.57396 11.8286 8.18334 11.8896 7.80492 11.9507L6.54759 2.57568C6.43773 1.72119 5.74193 1.40381 5.08275 1.51367C4.46019 1.61133 3.87425 2.13623 3.97191 2.94189L5.19261 12.7808C4.78978 12.9761 4.43578 13.1836 4.09398 13.4033L2.54369 5.84717C2.37279 5.01709 1.68919 4.71191 1.06664 4.80957C0.456284 4.91943-0.105239 5.44434 0.0168312 6.28662L1.48167 17.5293C2.17748 22.8882 4.9973 26.0986 9.84349 26.0986Z" fill="#000000"/>
 </g>
</svg>
