<?xml version="1.0" encoding="UTF-8"?>
<!--Generator: Apple Native CoreSVG 175.5-->
<!DOCTYPE svg
PUBLIC "-//W3C//DTD SVG 1.1//EN"
       "http://www.w3.org/Graphics/SVG/1.1/DTD/svg11.dtd">
<svg version="1.1" xmlns="http://www.w3.org/2000/svg" xmlns:xlink="http://www.w3.org/1999/xlink" width="6.36914" height="10.7344">
 <g>
  <rect height="10.7344" opacity="0" width="6.36914" x="0" y="0"/>
  <path d="M6.36914 5.36426C6.36328 5.07129 6.26074 4.83398 6.02051 4.59961L1.59375 0.263672C1.41211 0.0849609 1.20117 0 0.94043 0C0.424805 0 0 0.416016 0 0.931641C0 1.18652 0.105469 1.42383 0.301758 1.61719L4.16309 5.36133L0.301758 9.11133C0.108398 9.30176 0 9.53906 0 9.7998C0 10.3125 0.424805 10.7314 0.94043 10.7314C1.19531 10.7314 1.41211 10.6465 1.59375 10.4648L6.02051 6.12891C6.26367 5.8916 6.36914 5.6543 6.36914 5.36426Z" fill="#000000"/>
 </g>
</svg>
