<?xml version="1.0" encoding="UTF-8"?>
<!--Generator: Apple Native CoreSVG 175.5-->
<!DOCTYPE svg
PUBLIC "-//W3C//DTD SVG 1.1//EN"
       "http://www.w3.org/Graphics/SVG/1.1/DTD/svg11.dtd">
<svg version="1.1" xmlns="http://www.w3.org/2000/svg" xmlns:xlink="http://www.w3.org/1999/xlink" width="21.7651" height="6.67725">
 <g>
  <rect height="6.67725" opacity="0" width="21.7651" x="0" y="0"/>
  <path d="M0.769043 2.30713L9.10645 5.56641C9.66797 5.78613 10.3394 6.05469 10.8887 6.05469C11.4258 6.05469 12.1094 5.78613 12.6709 5.56641L20.9961 2.30713C21.46 2.12402 21.7651 1.70898 21.7651 1.25732C21.7651 0.537109 21.2402 0 20.5322 0C20.166 0 19.6777 0.20752 19.3726 0.317383L10.022 3.9917L11.7432 3.9917L2.39258 0.317383C2.0874 0.20752 1.61133 0 1.23291 0C0.524902 0 0 0.537109 0 1.25732C0 1.70898 0.305176 2.12402 0.769043 2.30713Z" fill="#000000"/>
 </g>
</svg>
