<?xml version="1.0" encoding="UTF-8"?>
<!--Generator: Apple Native CoreSVG 175.5-->
<!DOCTYPE svg
PUBLIC "-//W3C//DTD SVG 1.1//EN"
       "http://www.w3.org/Graphics/SVG/1.1/DTD/svg11.dtd">
<svg version="1.1" xmlns="http://www.w3.org/2000/svg" xmlns:xlink="http://www.w3.org/1999/xlink" width="26.77" height="27.478">
 <g>
  <rect height="27.478" opacity="0" width="26.77" x="0" y="0"/>
  <path d="M26.77 20.6909C26.77 20.1172 26.3916 19.7632 25.7935 19.7632L8.19092 19.7632C7.92236 19.7632 7.83691 19.6777 7.83691 19.4092L7.83691 1.80664C7.83691 1.19629 7.44629 0.78125 6.84814 0.78125C6.26221 0.78125 5.87158 1.19629 5.87158 1.80664L5.87158 20.6421C5.87158 21.228 6.25 21.6064 6.83594 21.6064L25.7935 21.6064C26.3916 21.6064 26.77 21.2524 26.77 20.6909ZM0 7.56836C0 8.1543 0.378418 8.49609 0.964355 8.49609L18.5791 8.49609C18.8477 8.49609 18.9331 8.59375 18.9331 8.8501L18.9331 26.4526C18.9331 27.063 19.3237 27.478 19.9097 27.478C20.5078 27.478 20.8984 27.063 20.8984 26.4526L20.8984 7.62939C20.8984 7.04346 20.52 6.65283 19.9341 6.65283L0.964355 6.65283C0.378418 6.65283 0 7.00684 0 7.56836Z" fill="#000000"/>
 </g>
</svg>
