<?xml version="1.0" encoding="UTF-8"?>
<!--Generator: Apple Native CoreSVG 175.5-->
<!DOCTYPE svg
PUBLIC "-//W3C//DTD SVG 1.1//EN"
       "http://www.w3.org/Graphics/SVG/1.1/DTD/svg11.dtd">
<svg version="1.1" xmlns="http://www.w3.org/2000/svg" xmlns:xlink="http://www.w3.org/1999/xlink" width="23.8525" height="24.0845">
 <g>
  <rect height="24.0845" opacity="0" width="23.8525" x="0" y="0"/>
  <path d="M0 9.74121C0 15.1123 4.37012 19.4824 9.74121 19.4824C11.8652 19.4824 13.8062 18.7988 15.4053 17.6514L21.4111 23.6694C21.6919 23.9502 22.0581 24.0845 22.4487 24.0845C23.2788 24.0845 23.8525 23.4619 23.8525 22.644C23.8525 22.2534 23.7061 21.8994 23.4497 21.6431L17.4805 15.6372C18.7378 14.0015 19.4824 11.9629 19.4824 9.74121C19.4824 4.37012 15.1123 0 9.74121 0C4.37012 0 0 4.37012 0 9.74121ZM2.0874 9.74121C2.0874 5.51758 5.51758 2.0874 9.74121 2.0874C13.9648 2.0874 17.395 5.51758 17.395 9.74121C17.395 13.9648 13.9648 17.395 9.74121 17.395C5.51758 17.395 2.0874 13.9648 2.0874 9.74121ZM5.71289 9.74121C5.71289 10.2417 6.10352 10.6323 6.604 10.6323L8.8501 10.6323L8.8501 12.8784C8.8501 13.3789 9.24072 13.7695 9.74121 13.7695C10.2417 13.7695 10.6445 13.3789 10.6445 12.8784L10.6445 10.6323L12.8784 10.6323C13.3789 10.6323 13.7695 10.2417 13.7695 9.74121C13.7695 9.24072 13.3789 8.83789 12.8784 8.83789L10.6445 8.83789L10.6445 6.604C10.6445 6.10352 10.2417 5.71289 9.74121 5.71289C9.24072 5.71289 8.8501 6.10352 8.8501 6.604L8.8501 8.83789L6.604 8.83789C6.10352 8.83789 5.71289 9.24072 5.71289 9.74121Z" fill="#000000"/>
 </g>
</svg>
