<?xml version="1.0" encoding="UTF-8"?>
<!--Generator: Apple Native CoreSVG 175.5-->
<!DOCTYPE svg
PUBLIC "-//W3C//DTD SVG 1.1//EN"
       "http://www.w3.org/Graphics/SVG/1.1/DTD/svg11.dtd">
<svg version="1.1" xmlns="http://www.w3.org/2000/svg" xmlns:xlink="http://www.w3.org/1999/xlink" width="29.9805" height="24.0601">
 <g>
  <rect height="24.0601" opacity="0" width="29.9805" x="0" y="0"/>
  <path d="M3.83301 23.2788L26.1475 23.2788C28.6865 23.2788 29.9805 22.0093 29.9805 19.4946L29.9805 6.71387C29.9805 4.19922 28.6865 2.94189 26.1475 2.94189L22.6562 2.94189C21.6919 2.94189 21.3989 2.74658 20.8496 2.13623L19.873 1.0376C19.2627 0.366211 18.6401 0 17.3828 0L12.5122 0C11.2549 0 10.6323 0.366211 10.022 1.0376L9.04541 2.13623C8.49609 2.73438 8.19092 2.94189 7.23877 2.94189L3.83301 2.94189C1.28174 2.94189 0 4.19922 0 6.71387L0 19.4946C0 22.0093 1.28174 23.2788 3.83301 23.2788ZM3.85742 21.3135C2.66113 21.3135 1.96533 20.6665 1.96533 19.397L1.96533 6.82373C1.96533 5.5542 2.66113 4.90723 3.85742 4.90723L7.72705 4.90723C8.82568 4.90723 9.42383 4.69971 10.0342 4.01611L10.9863 2.94189C11.6821 2.16064 12.0483 1.96533 13.1226 1.96533L16.7725 1.96533C17.8467 1.96533 18.2129 2.16064 18.9087 2.94189L19.8608 4.01611C20.4712 4.69971 21.0693 4.90723 22.168 4.90723L26.1108 4.90723C27.3193 4.90723 28.0151 5.5542 28.0151 6.82373L28.0151 19.397C28.0151 20.6665 27.3193 21.3135 26.1108 21.3135ZM14.9902 19.5557C18.6768 19.5557 21.6431 16.6016 21.6431 12.8784C21.6431 9.16748 18.689 6.21338 14.9902 6.21338C11.2915 6.21338 8.3252 9.16748 8.3252 12.8784C8.3252 16.6016 11.2915 19.5557 14.9902 19.5557ZM14.9902 17.7002C12.3413 17.7002 10.1685 15.564 10.1685 12.8784C10.1685 10.2051 12.3291 8.05664 14.9902 8.05664C17.6514 8.05664 19.7998 10.2051 19.7998 12.8784C19.7998 15.564 17.6514 17.7002 14.9902 17.7002ZM22.1436 8.38623C22.1436 9.24072 22.8516 9.91211 23.6816 9.91211C24.4995 9.91211 25.1953 9.22852 25.1953 8.38623C25.1953 7.58057 24.4995 6.87256 23.6816 6.87256C22.8516 6.87256 22.1436 7.58057 22.1436 8.38623Z" fill="#000000"/>
 </g>
</svg>
