<?xml version="1.0" encoding="UTF-8"?>
<!--Generator: Apple Native CoreSVG 175.5-->
<!DOCTYPE svg
PUBLIC "-//W3C//DTD SVG 1.1//EN"
       "http://www.w3.org/Graphics/SVG/1.1/DTD/svg11.dtd">
<svg version="1.1" xmlns="http://www.w3.org/2000/svg" xmlns:xlink="http://www.w3.org/1999/xlink" width="11.9385" height="21.2036">
 <g>
  <rect height="21.2036" opacity="0" width="11.9385" x="0" y="0"/>
  <path d="M11.9385 10.5957C11.9385 10.2905 11.8164 10.0098 11.5845 9.79004L1.9165 0.317383C1.69678 0.109863 1.42822 0 1.11084 0C0.488281 0 0 0.476074 0 1.11084C0 1.41602 0.12207 1.69678 0.317383 1.9043L9.2041 10.5957L0.317383 19.2871C0.12207 19.4946 0 19.7632 0 20.0806C0 20.7153 0.488281 21.1914 1.11084 21.1914C1.42822 21.1914 1.69678 21.0815 1.9165 20.8618L11.5845 11.4014C11.8164 11.1694 11.9385 10.9009 11.9385 10.5957Z" fill="#000000"/>
 </g>
</svg>
