<?xml version="1.0" encoding="UTF-8"?>
<!--Generator: Apple Native CoreSVG 175.5-->
<!DOCTYPE svg
PUBLIC "-//W3C//DTD SVG 1.1//EN"
       "http://www.w3.org/Graphics/SVG/1.1/DTD/svg11.dtd">
<svg version="1.1" xmlns="http://www.w3.org/2000/svg" xmlns:xlink="http://www.w3.org/1999/xlink" width="24.9023" height="24.9146">
 <g>
  <rect height="24.9146" opacity="0" width="24.9023" x="0" y="0"/>
  <path d="M12.4512 24.9023C19.2627 24.9023 24.9023 19.2505 24.9023 12.4512C24.9023 5.63965 19.2505 0 12.439 0C5.63965 0 0 5.63965 0 12.4512C0 19.2505 5.65186 24.9023 12.4512 24.9023ZM12.4512 22.8271C6.68945 22.8271 2.0874 18.2129 2.0874 12.4512C2.0874 6.68945 6.67725 2.0752 12.439 2.0752C18.2007 2.0752 22.8271 6.68945 22.8271 12.4512C22.8271 18.2129 18.2129 22.8271 12.4512 22.8271ZM6.75049 14.2212C7.72705 14.2212 8.52051 13.4277 8.52051 12.439C8.52051 11.4624 7.71484 10.6689 6.75049 10.6689C5.76172 10.6689 4.96826 11.4624 4.96826 12.439C4.96826 13.4277 5.76172 14.2212 6.75049 14.2212ZM12.439 14.2212C13.4155 14.2212 14.2212 13.4277 14.2212 12.439C14.2212 11.4624 13.4155 10.6689 12.439 10.6689C11.4624 10.6689 10.6567 11.4624 10.6567 12.439C10.6567 13.4277 11.4624 14.2212 12.439 14.2212ZM18.1396 14.2212C19.1162 14.2212 19.9097 13.4277 19.9097 12.439C19.9097 11.4624 19.1162 10.6689 18.1396 10.6689C17.1509 10.6689 16.3574 11.4624 16.3574 12.439C16.3574 13.4277 17.1509 14.2212 18.1396 14.2212Z" fill="#000000"/>
 </g>
</svg>
