<?xml version="1.0" encoding="UTF-8"?>
<!--Generator: Apple Native CoreSVG 175.5-->
<!DOCTYPE svg
PUBLIC "-//W3C//DTD SVG 1.1//EN"
       "http://www.w3.org/Graphics/SVG/1.1/DTD/svg11.dtd">
<svg version="1.1" xmlns="http://www.w3.org/2000/svg" xmlns:xlink="http://www.w3.org/1999/xlink" width="31.2866" height="24.4751">
 <g>
  <rect height="24.4751" opacity="0" width="31.2866" x="0" y="0"/>
  <path d="M4.90723 24.4751C7.6416 24.4751 9.83887 22.2778 9.83887 19.519C9.83887 18.5059 9.8877 18.103 10.6323 17.7002L31.2866 6.72607C30.7861 4.89502 28.7964 4.57764 25.7568 5.66406L15.332 9.41162C13.8672 9.93652 13.2324 10.6567 12.8418 12.0117L12.5977 12.9028C12.4146 13.5376 12.1338 13.855 11.1694 14.3433L9.27734 15.3442C8.97217 15.5029 8.80127 15.5518 8.56934 15.5518C7.54395 15.5518 7.17773 14.5996 4.90723 14.5996C2.18506 14.5996 0 16.7969 0 19.519C0 22.2656 2.18506 24.4751 4.90723 24.4751ZM4.90723 22.4731C3.2959 22.4731 2.00195 21.167 2.00195 19.519C2.00195 17.9077 3.2959 16.5894 4.90723 16.5894C6.54297 16.5894 7.84912 17.9077 7.84912 19.519C7.84912 21.167 6.54297 22.4731 4.90723 22.4731ZM15.6006 12.9517C15.0635 12.9517 14.5874 12.5 14.5874 11.9385C14.5874 11.3525 15.0635 10.9131 15.6006 10.9131C16.1743 10.9131 16.6504 11.3525 16.6504 11.9385C16.6504 12.5 16.1743 12.9517 15.6006 12.9517ZM4.90723 10.5835C7.18994 10.5835 7.55615 9.64355 8.56934 9.64355C8.80127 9.64355 8.97217 9.69238 9.27734 9.83887L11.3403 10.9375C11.5967 11.0718 11.8042 11.1938 11.9629 11.3037L12.0361 11.3037C12.3169 10.2783 12.7808 9.61914 13.5498 9.13086L13.5498 9.05762L10.7788 7.58057C9.91211 7.1167 9.83887 6.73828 9.83887 5.65186C9.83887 2.89307 7.6416 0.695801 4.90723 0.695801C2.18506 0.695801 0 2.90527 0 5.65186C0 8.38623 2.18506 10.5835 4.90723 10.5835ZM4.90723 8.59375C3.2959 8.59375 2.00195 7.26318 2.00195 5.65186C2.00195 4.00391 3.2959 2.69775 4.90723 2.69775C6.54297 2.69775 7.84912 4.00391 7.84912 5.65186C7.84912 7.26318 6.54297 8.59375 4.90723 8.59375ZM25.7568 19.5435C28.8208 20.6787 30.7861 20.3125 31.2866 18.4326L21.3501 13.1836L16.3086 15.8325L16.3086 15.979Z" fill="#000000"/>
 </g>
</svg>
