<?xml version="1.0" encoding="UTF-8"?>
<!--Generator: Apple Native CoreSVG 175.5-->
<!DOCTYPE svg
PUBLIC "-//W3C//DTD SVG 1.1//EN"
       "http://www.w3.org/Graphics/SVG/1.1/DTD/svg11.dtd">
<svg version="1.1" xmlns="http://www.w3.org/2000/svg" xmlns:xlink="http://www.w3.org/1999/xlink" width="23.7915" height="24.4751">
 <g>
  <rect height="24.4751" opacity="0" width="23.7915" x="0" y="0"/>
  <path d="M2.19727 11.0596L8.97217 11.0596C10.2173 11.0596 10.9375 10.3271 10.9375 9.08203L10.9375 2.31934C10.9375 1.68457 10.4614 1.18408 9.81445 1.18408C9.16748 1.18408 8.70361 1.67236 8.70361 2.31934L8.70361 3.34473L8.95996 7.60498L5.7373 4.22363L1.98975 0.439453C1.78223 0.219727 1.50146 0.109863 1.2085 0.109863C0.512695 0.109863 0 0.57373 0 1.25732C0 1.57471 0.12207 1.87988 0.341797 2.09961L4.10156 5.85938L7.48291 9.06982L3.22266 8.82568L2.19727 8.82568C1.55029 8.82568 1.0498 9.27734 1.0498 9.93652C1.0498 10.5835 1.53809 11.0596 2.19727 11.0596ZM13.9038 23.4497C14.5508 23.4497 15.0146 22.9736 15.0146 22.3145L15.0146 21.1548L14.7583 16.9067L17.981 20.2881L21.814 24.1455C22.0215 24.3652 22.29 24.4751 22.5952 24.4751C23.2788 24.4751 23.7915 24.0112 23.7915 23.3276C23.7915 23.0103 23.6816 22.7051 23.4619 22.4854L19.6167 18.6401L16.2231 15.4297L20.4956 15.6738L21.6553 15.6738C22.3022 15.6738 22.8027 15.2222 22.8027 14.5752C22.8027 13.916 22.3145 13.4521 21.6553 13.4521L14.7461 13.4521C13.501 13.4521 12.7808 14.1724 12.7808 15.4175L12.7808 22.3145C12.7808 22.9614 13.2446 23.4497 13.9038 23.4497Z" fill="#000000"/>
 </g>
</svg>
