<?xml version="1.0" encoding="UTF-8"?>
<!--Generator: Apple Native CoreSVG 175.5-->
<!DOCTYPE svg
PUBLIC "-//W3C//DTD SVG 1.1//EN"
       "http://www.w3.org/Graphics/SVG/1.1/DTD/svg11.dtd">
<svg version="1.1" xmlns="http://www.w3.org/2000/svg" xmlns:xlink="http://www.w3.org/1999/xlink" width="23.2666" height="23.3032">
 <g>
  <rect height="23.3032" opacity="0" width="23.2666" x="0" y="0"/>
  <path d="M1.12305 9.87549C1.77002 9.87549 2.23389 9.38721 2.23389 8.74023L2.23389 7.71484L1.98975 3.45459L5.2002 6.83594L8.95996 10.6201C9.16748 10.8398 9.43604 10.9375 9.729 10.9375C10.4248 10.9375 10.9375 10.4858 10.9375 9.80225C10.9375 9.47266 10.8276 9.17969 10.6079 8.95996L6.83594 5.2002L3.45459 1.98975L7.72705 2.23389L8.74023 2.23389C9.38721 2.23389 9.8877 1.78223 9.8877 1.12305C9.8877 0.463867 9.39941 0 8.74023 0L1.96533 0C0.720215 0 0 0.720215 0 1.96533L0 8.74023C0 9.375 0.476074 9.87549 1.12305 9.87549ZM14.5142 23.291L21.2891 23.291C22.5342 23.291 23.2666 22.5708 23.2666 21.3257L23.2666 14.5508C23.2666 13.916 22.7905 13.4155 22.1313 13.4155C21.4966 13.4155 21.0205 13.9038 21.0205 14.5508L21.0205 15.5762L21.2769 19.8364L18.0542 16.4551L14.3066 12.6709C14.0991 12.4512 13.8184 12.3535 13.5254 12.3535C12.8418 12.3535 12.3169 12.8052 12.3169 13.4888C12.3169 13.8184 12.439 14.1113 12.6587 14.3311L16.4185 18.0908L19.812 21.3013L15.5396 21.0571L14.5142 21.0571C13.8672 21.0571 13.3667 21.5088 13.3667 22.168C13.3667 22.8271 13.8672 23.291 14.5142 23.291Z" fill="#000000"/>
 </g>
</svg>
