<?xml version="1.0" encoding="UTF-8"?>
<!--Generator: Apple Native CoreSVG 175.5-->
<!DOCTYPE svg
PUBLIC "-//W3C//DTD SVG 1.1//EN"
       "http://www.w3.org/Graphics/SVG/1.1/DTD/svg11.dtd">
<svg version="1.1" xmlns="http://www.w3.org/2000/svg" xmlns:xlink="http://www.w3.org/1999/xlink" width="11.9385" height="21.2036">
 <g>
  <rect height="21.2036" opacity="0" width="11.9385" x="0" y="0"/>
  <path d="M0 10.5957C0 10.9009 0.109863 11.1694 0.341797 11.4014L10.022 20.8618C10.2295 21.0815 10.498 21.1914 10.8154 21.1914C11.4502 21.1914 11.9385 20.7153 11.9385 20.0806C11.9385 19.7632 11.8042 19.4946 11.6089 19.2871L2.72217 10.5957L11.6089 1.9043C11.8042 1.69678 11.9385 1.41602 11.9385 1.11084C11.9385 0.476074 11.4502 0 10.8154 0C10.498 0 10.2295 0.109863 10.022 0.317383L0.341797 9.79004C0.109863 10.0098 0 10.2905 0 10.5957Z" fill="#000000"/>
 </g>
</svg>
