<?xml version="1.0" encoding="UTF-8"?>
<!--Generator: Apple Native CoreSVG 175.5-->
<!DOCTYPE svg
PUBLIC "-//W3C//DTD SVG 1.1//EN"
       "http://www.w3.org/Graphics/SVG/1.1/DTD/svg11.dtd">
<svg version="1.1" xmlns="http://www.w3.org/2000/svg" xmlns:xlink="http://www.w3.org/1999/xlink" width="24.9634" height="30.7495">
 <g>
  <rect height="30.7495" opacity="0" width="24.9634" x="0" y="0"/>
  <path d="M5.92041 7.22656L9.69238 7.22656L18.4692 16.0889L18.4692 24.6216L21.1792 24.6216C23.6938 24.6216 24.9634 23.3276 24.9634 20.7886L24.9634 3.83301C24.9634 1.29395 23.6938 0 21.1792 0L9.70459 0C7.18994 0 5.92041 1.28174 5.92041 3.83301ZM12.4634 4.18701C11.9263 4.18701 11.6821 3.83301 11.6821 3.4668L11.6821 3.21045C11.6821 2.83203 11.9263 2.49023 12.4634 2.49023L18.4204 2.49023C18.9453 2.49023 19.2017 2.83203 19.2017 3.21045L19.2017 3.4668C19.2017 3.83301 18.9453 4.18701 18.4204 4.18701ZM0 26.8799C0 29.4312 1.25732 30.7129 3.78418 30.7129L15.2588 30.7129C17.7856 30.7129 19.043 29.4189 19.043 26.8799L19.043 17.3462C19.043 15.7837 18.8599 15.1001 17.8833 14.0991L11.1572 7.25098C10.2295 6.29883 9.46045 6.09131 8.09326 6.09131L3.78418 6.09131C1.26953 6.09131 0 7.37305 0 9.92432ZM1.96533 26.8433L1.96533 9.94873C1.96533 8.75244 2.6123 8.05664 3.88184 8.05664L7.88574 8.05664L7.88574 15.1367C7.88574 16.6748 8.66699 17.4438 10.1807 17.4438L17.0776 17.4438L17.0776 26.8433C17.0776 28.064 16.4185 28.7476 15.1611 28.7476L3.86963 28.7476C2.6123 28.7476 1.96533 28.064 1.96533 26.8433ZM10.4126 15.6006C9.92432 15.6006 9.729 15.4053 9.729 14.917L9.729 8.5083L16.6992 15.6006Z" fill="#000000"/>
 </g>
</svg>
