<?xml version="1.0" encoding="UTF-8"?>
<!--Generator: Apple Native CoreSVG 175.5-->
<!DOCTYPE svg
PUBLIC "-//W3C//DTD SVG 1.1//EN"
       "http://www.w3.org/Graphics/SVG/1.1/DTD/svg11.dtd">
<svg version="1.1" xmlns="http://www.w3.org/2000/svg" xmlns:xlink="http://www.w3.org/1999/xlink" width="29.5288" height="21.676">
 <g>
  <rect height="21.676" opacity="0" width="29.5288" x="0" y="0"/>
  <path d="M8.10547 19.0961L21.4233 21.4276C23.7549 21.8426 25.1465 20.3778 25.1465 17.7655L25.1465 3.75182C25.1465 1.00524 23.8525-0.349743 21.4233 0.0775028L8.10547 2.42125C5.67627 2.8485 4.38232 4.03258 4.38232 6.08336L4.38232 15.4217C4.38232 17.4603 5.67627 18.6688 8.10547 19.0961ZM8.00781 17.2528C6.84814 17.0575 6.22559 16.4715 6.22559 15.4462L6.22559 6.05895C6.22559 5.03356 6.84814 4.44762 8.00781 4.25231L21.521 1.92076C22.6807 1.72545 23.3032 2.37242 23.3032 3.72741L23.3032 17.7899C23.3032 19.0839 22.644 19.7797 21.521 19.5965ZM0.976562 11.6742L28.5522 11.6742C29.1626 11.6742 29.5288 11.3202 29.5288 10.7587C29.5288 10.1727 29.1626 9.83092 28.5522 9.83092L0.976562 9.83092C0.366211 9.83092 0 10.1727 0 10.7587C0 11.3202 0.366211 11.6742 0.976562 11.6742Z" fill="#000000"/>
 </g>
</svg>
