<?xml version="1.0" encoding="UTF-8"?>
<!--Generator: Vectorizer.ai, Inkscape 1.2.2, Manual-->
<!DOCTYPE svg
PUBLIC "-//W3C//DTD SVG 1.1//EN"
       "http://www.w3.org/Graphics/SVG/1.1/DTD/svg11.dtd">
<svg version="1.1" xmlns="http://www.w3.org/2000/svg" xmlns:xlink="http://www.w3.org/1999/xlink" width="25" height="24.128372">
 <g>
  <rect height="24.128372" opacity="0" width="25"  x="0" y="0"/>
  <path d="M 0,22.015112 V 5.3079915 l 0.03722,-3.35275 q 0.0032,-0.300971 0.247573,-0.449838 0.985437,-0.59870599 2.187702,-0.94498399 2.862459,-0.825243 5.822006,-0.435275 3.161813,0.417475 6.218447,1.31067899 0.548544,0.160194 1.092233,0.160194 4.63754,0 9.283172,0 A 0.11165049,0.11165049 0 0 1 25,1.7076685 V 21.974659 a 0.09061489,0.09061489 0 0 1 -0.09061,0.09061 H 12.891586 a 0.3171521,0.31877023 16.2 0 0 -0.268609,0.148867 l -1.142394,1.81068 a 0.22168285,0.22006472 15.9 0 1 -0.187703,0.10356 H 4.919094 A 0.22653722,0.21359223 73 0 1 4.734628,24.023198 L 3.553398,22.142939 A 0.13754045,0.15857605 76.7 0 0 3.427184,22.076601 Z M 10.325243,11.597636 q 0.202265,-0.37055 0.843042,-1.268608 a 0.16019417,0.15695793 17.3 0 1 0.12945,-0.06634 l 10.778317,-0.0097 a 0.09223301,0.09223301 0 0 0 0.09223,-0.09223 V 4.4892215 A 0.14239482,0.14239482 0 0 0 22.02589,4.3468265 q -3.453074,0 -6.961165,0 -0.527508,0 -1.058253,-0.160194 -1.951456,-0.592233 -3.953074,-0.959547 -2.135922,-0.391585 -3.203883,-0.436893 -1.980583,-0.08576 -3.933657,0.516181 a 0.16504854,0.16990291 81.1 0 0 -0.119741,0.158576 l -0.0356,6.6974115 a 0.08252427,0.07928803 0.6 0 0 0.08252,0.08091 l 2.122977,0.01942 a 0.14239482,0.14886731 74.7 0 1 0.124596,0.06796 l 1.156958,1.826861 a 0.25404531,0.24271845 73.2 0 0 0.208738,0.118123 l 3.323624,-0.0097 a 0.18446602,0.17799353 20.1 0 0 0.135923,-0.05987 q 0.202265,-0.226537 0.409385,-0.608415 z m -5.195793,7.796117 1.135922,1.802589 a 0.21197411,0.21035599 73.5 0 0 0.18123,0.09871 l 3.373786,-0.0081 a 0.15048544,0.14724919 16.3 0 0 0.124596,-0.06634 l 1.186084,-1.826861 a 0.14563107,0.14886731 16.3 0 1 0.124595,-0.06958 l 10.779936,-0.0097 a 0.13268608,0.13106796 0 0 0 0.132686,-0.131068 v -6.048544 a 0.09061489,0.09061489 0 0 0 -0.09061,-0.09061 h -9.247573 a 0.21359223,0.20873786 15.7 0 0 -0.179612,0.09871 l -1.113268,1.775081 a 0.22815534,0.23139159 16.3 0 1 -0.194175,0.108414 H 4.864083 A 0.14239482,0.15210356 75 0 1 4.737869,14.958494 L 3.59062,13.123542 a 0.16343042,0.13592233 71.3 0 0 -0.121359,-0.07443 l -0.62136,-0.0016 a 0.09708738,0.10194175 0 0 0 -0.09709,0.101941 l -0.0097,6.082524 a 0.08252427,0.08090615 0.6 0 0 0.08253,0.08252 l 2.184466,0.0081 a 0.15857605,0.14239482 72.4 0 1 0.121359,0.0712 z" fill="#000000"/>
 </g>
</svg>
