<?xml version="1.0" encoding="UTF-8"?>
<!--Generator: Apple Native CoreSVG 175.5-->
<!DOCTYPE svg
PUBLIC "-//W3C//DTD SVG 1.1//EN"
       "http://www.w3.org/Graphics/SVG/1.1/DTD/svg11.dtd">
<svg version="1.1" xmlns="http://www.w3.org/2000/svg" xmlns:xlink="http://www.w3.org/1999/xlink" width="43.1168" height="19.2505">
 <g>
  <rect height="19.2505" opacity="0" width="43.1168" x="0" y="0"/>
  <path d="M0.697413 6.93359L6.95962 16.5649C7.70425 17.7002 8.70523 18.103 10.2067 18.103L20.7536 18.103C22.609 18.103 23.8053 17.627 24.6598 16.5527L32.8751 6.01807L37.6115 4.77295L39.296 6.21338C40.297 7.08008 41.6032 5.79834 40.59 4.89502L38.7467 3.28369C38.3561 2.94189 38.0021 2.80762 37.2209 3.01514L22.487 6.93359L20.485 4.99268C19.9357 4.46777 19.3498 4.3335 18.6051 4.3335L10.2067 4.3335C9.85269 4.3335 9.5353 4.35791 9.24233 4.41895L3.83462 2.38037C0.929346 1.28174-1.14585 4.13818 0.697413 6.93359ZM1.88149 5.5542C1.27114 4.58984 1.97915 3.60107 3.05337 3.9917L7.16714 5.57861C6.73989 6.16455 6.50796 6.97021 6.50796 7.99561L6.50796 12.6709ZM9.98696 0.891113C9.98696 1.37939 10.402 1.78223 10.8903 1.78223L18.1046 1.78223C18.5929 1.78223 19.008 1.37939 19.008 0.891113C19.008 0.402832 18.5929 0 18.1046 0L10.8903 0C10.402 0 9.98696 0.402832 9.98696 0.891113ZM13.6002 5.51758L15.3825 5.51758L15.3825 0.720215L13.6002 0.720215ZM40.1017 19.2383C41.7497 19.2383 43.1168 17.9321 43.1168 16.272C43.1168 15.332 42.653 14.4409 42.1891 13.5864L40.3825 10.2295C40.3214 10.1074 40.2116 10.0464 40.1017 10.0464C39.9674 10.0464 39.8942 10.1074 39.8332 10.2417L38.0021 13.5864C37.5504 14.4409 37.0866 15.332 37.0866 16.272C37.0866 17.9321 38.4416 19.2383 40.1017 19.2383Z" fill="#000000"/>
 </g>
</svg>
