<?xml version="1.0" encoding="UTF-8"?>
<!--Generator: Apple Native CoreSVG 175.5-->
<!DOCTYPE svg
PUBLIC "-//W3C//DTD SVG 1.1//EN"
       "http://www.w3.org/Graphics/SVG/1.1/DTD/svg11.dtd">
<svg version="1.1" xmlns="http://www.w3.org/2000/svg" xmlns:xlink="http://www.w3.org/1999/xlink" width="24.9023" height="24.9146">
 <g>
  <rect height="24.9146" opacity="0" width="24.9023" x="0" y="0"/>
  <path d="M12.4512 24.9023C19.2627 24.9023 24.9023 19.2505 24.9023 12.4512C24.9023 5.63965 19.2505 0 12.439 0C5.63965 0 0 5.63965 0 12.4512C0 19.2505 5.65186 24.9023 12.4512 24.9023ZM11.084 18.4204C10.6689 18.4204 10.3271 18.2495 10.0098 17.8223L6.9458 14.0625C6.7627 13.8184 6.65283 13.5498 6.65283 13.269C6.65283 12.7197 7.08008 12.2681 7.62939 12.2681C7.9834 12.2681 8.25195 12.3779 8.55713 12.7808L11.0352 15.979L16.2476 7.60498C16.4795 7.23877 16.7969 7.04346 17.1143 7.04346C17.6514 7.04346 18.1519 7.40967 18.1519 7.9834C18.1519 8.25195 17.9932 8.53271 17.8467 8.78906L12.1094 17.8223C11.853 18.2251 11.499 18.4204 11.084 18.4204Z" fill="#000000"/>
 </g>
</svg>
