<?xml version="1.0" encoding="UTF-8"?>
<!--Generator: Apple Native CoreSVG 175.5-->
<!DOCTYPE svg
PUBLIC "-//W3C//DTD SVG 1.1//EN"
       "http://www.w3.org/Graphics/SVG/1.1/DTD/svg11.dtd">
<svg version="1.1" xmlns="http://www.w3.org/2000/svg" xmlns:xlink="http://www.w3.org/1999/xlink" width="22.4731" height="22.4976">
 <g>
  <rect height="22.4976" opacity="0" width="22.4731" x="0" y="0"/>
  <path d="M11.2549 15.0635C13.3301 15.0635 15.0513 13.3545 15.0513 11.2427C15.0513 9.16748 13.3301 7.4585 11.2549 7.4585C9.15527 7.4585 7.43408 9.16748 7.43408 11.2427C7.43408 13.3545 9.15527 15.0635 11.2549 15.0635ZM5.87158 10.2783L1.0376 10.2783L1.0376 12.2437L5.87158 12.2437C5.79834 11.9141 5.76172 11.5845 5.76172 11.2427C5.76172 10.9131 5.79834 10.5957 5.87158 10.2783ZM12.2192 5.896L12.2192 1.06201L10.2539 1.06201L10.2539 5.896C10.5835 5.82275 10.9131 5.78613 11.2549 5.78613C11.5845 5.78613 11.9019 5.82275 12.2192 5.896ZM21.4355 10.2783L16.626 10.2783C16.687 10.5957 16.7236 10.9131 16.7236 11.2427C16.7236 11.5845 16.687 11.9141 16.626 12.2437L21.4355 12.2437ZM10.2539 16.626L10.2539 21.46L12.2192 21.46L12.2192 16.626C11.9019 16.6992 11.5845 16.7358 11.2549 16.7358C10.9131 16.7358 10.5835 16.6992 10.2539 16.626ZM0 21.521C0 22.1069 0.390625 22.4976 0.976562 22.4976L21.5088 22.4976C22.0947 22.4976 22.4731 22.1069 22.4731 21.521L22.4731 0.98877C22.4731 0.402832 22.0947 0.0244141 21.5088 0.0244141L0.976562 0.0244141C0.390625 0.0244141 0 0.402832 0 0.98877ZM1.96533 20.1782L1.96533 2.34375C1.96533 2.0752 2.06299 1.98975 2.31934 1.98975L20.1538 1.98975C20.4224 1.98975 20.5078 2.0752 20.5078 2.34375L20.5078 20.1782C20.5078 20.4346 20.4224 20.5322 20.1538 20.5322L2.31934 20.5322C2.06299 20.5322 1.96533 20.4346 1.96533 20.1782Z" fill="#000000"/>
 </g>
</svg>
