<?xml version="1.0" encoding="UTF-8"?>
<!--Generator: Apple Native CoreSVG 175.5-->
<!DOCTYPE svg
PUBLIC "-//W3C//DTD SVG 1.1//EN"
       "http://www.w3.org/Graphics/SVG/1.1/DTD/svg11.dtd">
<svg version="1.1" xmlns="http://www.w3.org/2000/svg" xmlns:xlink="http://www.w3.org/1999/xlink" width="22.4512" height="22.4619">
 <g>
  <rect height="22.4619" opacity="0" width="22.4512" x="0" y="0"/>
  <path d="M10.2373 22.4512L12.2139 22.4512C12.7725 22.4512 13.1807 22.1182 13.2988 21.5703L13.8574 19.207C14.2764 19.0674 14.6846 18.9062 15.0391 18.7344L17.1123 20.002C17.5742 20.292 18.1006 20.249 18.4873 19.8623L19.873 18.4873C20.2598 18.1006 20.3135 17.542 20.002 17.0801L18.7344 15.0283C18.917 14.6523 19.0781 14.2656 19.1963 13.8789L21.5811 13.3096C22.1289 13.1914 22.4512 12.7832 22.4512 12.2246L22.4512 10.2803C22.4512 9.73242 22.1289 9.32422 21.5811 9.20605L19.2178 8.63672C19.0781 8.19629 18.9062 7.79883 18.7559 7.46582L20.0234 5.38184C20.3242 4.91992 20.292 4.39355 19.8945 4.00684L18.4873 2.62109C18.0898 2.25586 17.6172 2.19141 17.1445 2.45996L15.0391 3.75977C14.6953 3.57715 14.2979 3.41602 13.8574 3.27637L13.2988 0.880859C13.1807 0.333008 12.7725 0 12.2139 0L10.2373 0C9.67871 0 9.27051 0.333008 9.1416 0.880859L8.58301 3.25488C8.16406 3.39453 7.75586 3.55566 7.39062 3.74902L5.30664 2.45996C4.83398 2.19141 4.35059 2.24512 3.95312 2.62109L2.55664 4.00684C2.15918 4.39355 2.11621 4.91992 2.42773 5.38184L3.68457 7.46582C3.54492 7.79883 3.37305 8.19629 3.2334 8.63672L0.870117 9.20605C0.322266 9.32422 0 9.73242 0 10.2803L0 12.2246C0 12.7832 0.322266 13.1914 0.870117 13.3096L3.25488 13.8789C3.37305 14.2656 3.53418 14.6523 3.70605 15.0283L2.44922 17.0801C2.12695 17.542 2.19141 18.1006 2.57812 18.4873L3.95312 19.8623C4.33984 20.249 4.87695 20.292 5.33887 20.002L7.40137 18.7344C7.7666 18.9062 8.16406 19.0674 8.58301 19.207L9.1416 21.5703C9.27051 22.1182 9.67871 22.4512 10.2373 22.4512ZM11.2256 15.0176C9.1416 15.0176 7.43359 13.2988 7.43359 11.2148C7.43359 9.1416 9.1416 7.43359 11.2256 7.43359C13.3096 7.43359 15.0176 9.1416 15.0176 11.2148C15.0176 13.2988 13.3096 15.0176 11.2256 15.0176Z" fill="#000000"/>
 </g>
</svg>
