<?xml version="1.0" encoding="UTF-8"?>
<!--Generator: Apple Native CoreSVG 175.5-->
<!DOCTYPE svg
PUBLIC "-//W3C//DTD SVG 1.1//EN"
       "http://www.w3.org/Graphics/SVG/1.1/DTD/svg11.dtd">
<svg version="1.1" xmlns="http://www.w3.org/2000/svg" xmlns:xlink="http://www.w3.org/1999/xlink" width="24.4507" height="31.3616">
 <g>
  <rect height="31.3616" opacity="0" width="24.4507" x="0" y="0"/>
  <path d="M9.21631 26.9296L21.3135 26.9296C23.4009 26.9296 24.4507 25.9286 24.4507 23.7924L24.4507 11.7196C24.4507 9.5834 23.4009 8.58242 21.3135 8.58242L9.21631 8.58242C7.12891 8.58242 6.0791 9.5834 6.0791 11.7196L6.0791 23.7924C6.0791 25.9286 7.12891 26.9296 9.21631 26.9296ZM9.25293 24.9643C8.42285 24.9643 8.04443 24.6225 8.04443 23.768L8.04443 11.7563C8.04443 10.8896 8.42285 10.5478 9.25293 10.5478L21.2769 10.5478C22.1191 10.5478 22.4854 10.8896 22.4854 11.7563L22.4854 23.768C22.4854 24.6225 22.1191 24.9643 21.2769 24.9643ZM0.756836 10.914C1.17188 10.914 1.52588 10.5722 1.52588 10.1571L1.52588 8.33828C1.52588 5.72598 3.19824 3.89492 5.84717 3.89492L6.0791 3.89492L6.0791 5.38418C6.0791 6.26309 6.7627 6.47061 7.44629 5.97012L10.5225 3.72402C11.0474 3.34561 11.0352 2.91836 10.5225 2.52774L7.44629 0.269435C6.7627-0.231053 6.0791-0.0357407 6.0791 0.86758L6.0791 2.47891L5.83496 2.47891C2.31934 2.47891 0 4.83486 0 8.32608L0 10.1571C0 10.5722 0.341797 10.914 0.756836 10.914Z" fill="#000000"/>
 </g>
</svg>
