<?xml version="1.0" encoding="UTF-8"?>
<!--Generator: Apple Native CoreSVG 175.5-->
<!DOCTYPE svg
PUBLIC "-//W3C//DTD SVG 1.1//EN"
       "http://www.w3.org/Graphics/SVG/1.1/DTD/svg11.dtd">
<svg version="1.1" xmlns="http://www.w3.org/2000/svg" xmlns:xlink="http://www.w3.org/1999/xlink" width="21.3257" height="23.0103">
 <g>
  <rect height="23.0103" opacity="0" width="21.3257" x="0" y="0"/>
  <path d="M2.99072 23.0103L18.335 23.0103C20.3613 23.0103 21.3257 22.3999 21.3257 21.0571C21.3257 17.8589 17.2852 13.2324 10.6689 13.2324C4.04053 13.2324 0 17.8589 0 21.0571C0 22.3999 0.964355 23.0103 2.99072 23.0103ZM2.41699 21.167C2.09961 21.167 1.96533 21.0815 1.96533 20.8252C1.96533 18.8232 5.06592 15.0757 10.6689 15.0757C16.2598 15.0757 19.3604 18.8232 19.3604 20.8252C19.3604 21.0815 19.2383 21.167 18.9209 21.167ZM10.6689 11.7188C13.5742 11.7188 15.9424 9.13086 15.9424 5.98145C15.9424 2.85645 13.5864 0.402832 10.6689 0.402832C7.77588 0.402832 5.39551 2.90527 5.39551 6.00586C5.40771 9.14307 7.76367 11.7188 10.6689 11.7188ZM10.6689 9.87549C8.88672 9.87549 7.36084 8.1665 7.36084 6.00586C7.36084 3.88184 8.8623 2.24609 10.6689 2.24609C12.4878 2.24609 13.9771 3.85742 13.9771 5.98145C13.9771 8.14209 12.4634 9.87549 10.6689 9.87549Z" fill="#000000"/>
 </g>
</svg>
