<?xml version="1.0" encoding="UTF-8"?>
<!--Generator: Apple Native CoreSVG 175.5-->
<!DOCTYPE svg
PUBLIC "-//W3C//DTD SVG 1.1//EN"
       "http://www.w3.org/Graphics/SVG/1.1/DTD/svg11.dtd">
<svg version="1.1" xmlns="http://www.w3.org/2000/svg" xmlns:xlink="http://www.w3.org/1999/xlink" width="21.9141" height="21.9248">
 <g>
  <rect height="21.9248" opacity="0" width="21.9141" x="0" y="0"/>
  <path d="M10.957 21.9141C16.9512 21.9141 21.9141 16.9404 21.9141 10.957C21.9141 4.96289 16.9404 0 10.9463 0C4.96289 0 0 4.96289 0 10.957C0 16.9404 4.97363 21.9141 10.957 21.9141ZM10.957 20.0879C5.88672 20.0879 1.83691 16.0273 1.83691 10.957C1.83691 5.88672 5.87598 1.82617 10.9463 1.82617C16.0166 1.82617 20.0879 5.88672 20.0879 10.957C20.0879 16.0273 16.0273 20.0879 10.957 20.0879ZM16.5 12.2676C16.5 9.68945 14.6309 8.12109 12.1279 8.12109L8.91602 8.12109L7.64844 8.15332L8.49707 7.4873L9.60352 6.41309C9.75391 6.28418 9.85059 6.08008 9.85059 5.85449C9.85059 5.41406 9.51758 5.08105 9.07715 5.08105C8.85156 5.08105 8.67969 5.14551 8.5293 5.30664L5.67188 8.20703C5.5 8.38965 5.38184 8.61523 5.38184 8.8623C5.38184 9.12012 5.5 9.33496 5.67188 9.51758L8.54004 12.4395C8.69043 12.5898 8.8623 12.665 9.08789 12.665C9.51758 12.665 9.85059 12.332 9.85059 11.8809C9.85059 11.6875 9.77539 11.4727 9.61426 11.333L8.27148 10.0439L7.64844 9.57129L8.91602 9.625L12.1279 9.625C13.707 9.625 14.9209 10.5273 14.9209 12.1816C14.9209 13.8789 13.7393 14.9209 12.1172 14.9209C11.9883 14.9209 10.667 14.9209 10.624 14.9209C10.1621 14.9209 9.80762 15.1895 9.80762 15.6943C9.80762 16.1885 10.1621 16.457 10.6455 16.457C10.6992 16.457 11.9883 16.457 12.1172 16.457C14.6201 16.457 16.5 14.8457 16.5 12.2676Z" fill="#000000"/>
 </g>
</svg>
