<?xml version="1.0" encoding="UTF-8"?>
<!--Generator: Apple Native CoreSVG 175.5-->
<!DOCTYPE svg
PUBLIC "-//W3C//DTD SVG 1.1//EN"
       "http://www.w3.org/Graphics/SVG/1.1/DTD/svg11.dtd">
<svg version="1.1" xmlns="http://www.w3.org/2000/svg" xmlns:xlink="http://www.w3.org/1999/xlink" width="28.7842" height="22.4731">
 <g>
  <rect height="22.4731" opacity="0" width="28.7842" x="0" y="0"/>
  <path d="M27.5269 18.042L20.2759 11.2305C19.7266 10.7422 19.0918 10.4736 18.4326 10.4736C17.7612 10.4736 17.1631 10.7056 16.6016 11.2061L11.084 16.1377L8.82568 14.0991C8.31299 13.6353 7.75146 13.4033 7.17773 13.4033C6.62842 13.4033 6.11572 13.623 5.60303 14.0869L0.952148 18.2861C1.02539 20.4956 1.92871 21.6187 3.74756 21.6187L24.2065 21.6187C26.416 21.6187 27.5269 20.3857 27.5269 18.042ZM9.09424 11.3525C10.6689 11.3525 11.9629 10.0586 11.9629 8.47168C11.9629 6.89697 10.6689 5.59082 9.09424 5.59082C7.50732 5.59082 6.21338 6.89697 6.21338 8.47168C6.21338 10.0586 7.50732 11.3525 9.09424 11.3525ZM3.83301 22.4731L24.9512 22.4731C27.5146 22.4731 28.7842 21.2158 28.7842 18.7012L28.7842 3.78418C28.7842 1.26953 27.5146 0 24.9512 0L3.83301 0C1.28174 0 0 1.26953 0 3.78418L0 18.7012C0 21.2158 1.28174 22.4731 3.83301 22.4731ZM3.85742 20.5078C2.63672 20.5078 1.96533 19.8608 1.96533 18.5913L1.96533 3.89404C1.96533 2.62451 2.63672 1.96533 3.85742 1.96533L24.9268 1.96533C26.1353 1.96533 26.8188 2.62451 26.8188 3.89404L26.8188 18.5913C26.8188 19.8608 26.1353 20.5078 24.9268 20.5078Z" fill="#000000"/>
 </g>
</svg>
